<svg width="23" height="25" viewBox="0 0 23 25" fill="none" xmlns="http://www.w3.org/2000/svg">
<path d="M17.878 7.7512C17.878 5.96067 17.1667 4.24347 15.9006 2.97738C14.6345 1.71128 12.9173 1 11.1268 1C9.33627 1 7.61907 1.71128 6.35298 2.97738C5.08688 4.24347 4.3756 5.96067 4.3756 7.7512C4.3756 15.6276 1 17.878 1 17.878H21.2536C21.2536 17.878 17.878 15.6276 17.878 7.7512Z" stroke="#0D2155" style="stroke:#0D2155;stroke:color(display-p3 0.0510 0.1294 0.3333);stroke-opacity:1;" stroke-width="2" stroke-linecap="round" stroke-linejoin="round"/>
<path d="M13.0734 22.3788C12.8755 22.7198 12.5916 23.0029 12.25 23.1997C11.9083 23.3964 11.521 23.5 11.1268 23.5C10.7325 23.5 10.3452 23.3964 10.0036 23.1997C9.66194 23.0029 9.378 22.7198 9.18018 22.3788" stroke="#0D2155" style="stroke:#0D2155;stroke:color(display-p3 0.0510 0.1294 0.3333);stroke-opacity:1;" stroke-width="2" stroke-linecap="round" stroke-linejoin="round"/>
</svg>
