<svg width="20" height="20" viewBox="0 0 20 20" fill="none" xmlns="http://www.w3.org/2000/svg">
<path d="M7 19.123H13M7 19.123V14.0889M7 19.123H1.6C1.44087 19.123 1.28826 19.0594 1.17574 18.9461C1.06321 18.8328 1 18.6792 1 18.5189V14.693C1 14.5328 1.06321 14.3791 1.17574 14.2658C1.28826 14.1525 1.44087 14.0889 1.6 14.0889H7M13 19.123V7.04102M13 19.123H18.4C18.5591 19.123 18.7117 19.0594 18.8243 18.9461C18.9368 18.8328 19 18.6792 19 18.5189V1.6041C19 1.44388 18.9368 1.29023 18.8243 1.17694C18.7117 1.06365 18.5591 1 18.4 1H13.6C13.4409 1 13.2883 1.06365 13.1757 1.17694C13.0632 1.29023 13 1.44388 13 1.6041V7.04102M7 14.0889V7.64512C7 7.4849 7.06321 7.33124 7.17574 7.21795C7.28826 7.10466 7.44087 7.04102 7.6 7.04102H13" stroke="#0D2155" style="stroke:#0D2155;stroke:color(display-p3 0.0510 0.1294 0.3333);stroke-opacity:1;" stroke-width="1.5"/>
</svg>
