<svg width="24" height="25" viewBox="0 0 24 25" fill="none" xmlns="http://www.w3.org/2000/svg">
<path d="M6 2.01367H15C15.5304 2.01367 16.0391 2.22583 16.4142 2.60346C16.7893 2.9811 17 3.49328 17 4.02734V6.04102H15V4.02734H6V20.1367H15V18.123H17V20.1367C17 20.6708 16.7893 21.183 16.4142 21.5606C16.0391 21.9382 15.5304 22.1504 15 22.1504H6C5.46957 22.1504 4.96086 21.9382 4.58579 21.5606C4.21071 21.183 4 20.6708 4 20.1367V4.02734C4 3.49328 4.21071 2.9811 4.58579 2.60346C4.96086 2.22583 5.46957 2.01367 6 2.01367Z" fill="#E5F8FF" style="fill:#E5F8FF;fill:color(display-p3 0.8980 0.9725 1.0000);fill-opacity:1;"/>
<path d="M16.09 15.6966L17.5 17.1162L22.5 12.082L17.5 7.04785L16.09 8.46749L18.67 11.0752H9V13.0889H18.67L16.09 15.6966Z" fill="#E5F8FF" style="fill:#E5F8FF;fill:color(display-p3 0.8980 0.9725 1.0000);fill-opacity:1;"/>
</svg>
