<svg width="44" height="36" viewBox="0 0 44 36" fill="none" xmlns="http://www.w3.org/2000/svg">
<g filter="url(#filter0_d_137_3289)">
<path d="M5 15.5802C5 15.5802 10.2901 5 19.5478 5C28.8054 5 34.0955 15.5802 34.0955 15.5802C34.0955 15.5802 28.8054 26.1604 19.5478 26.1604C10.2901 26.1604 5 15.5802 5 15.5802Z" fill="url(#paint0_linear_137_3289)" stroke="white" style="stroke:white;stroke-opacity:1;" stroke-width="2" stroke-linecap="round" stroke-linejoin="round"/>
<path d="M19.548 19.5478C21.7392 19.5478 23.5156 17.7714 23.5156 15.5802C23.5156 13.389 21.7392 11.6126 19.548 11.6126C17.3568 11.6126 15.5804 13.389 15.5804 15.5802C15.5804 17.7714 17.3568 19.5478 19.548 19.5478Z" fill="url(#paint1_linear_137_3289)" stroke="white" style="stroke:white;stroke-opacity:1;" stroke-width="2" stroke-linecap="round" stroke-linejoin="round"/>
</g>
<defs>
<filter id="filter0_d_137_3289" x="0" y="0" width="43.0955" height="35.1604" filterUnits="userSpaceOnUse" color-interpolation-filters="sRGB">
<feFlood flood-opacity="0" result="BackgroundImageFix"/>
<feColorMatrix in="SourceAlpha" type="matrix" values="0 0 0 0 0 0 0 0 0 0 0 0 0 0 0 0 0 0 127 0" result="hardAlpha"/>
<feOffset dx="2" dy="2"/>
<feGaussianBlur stdDeviation="3"/>
<feComposite in2="hardAlpha" operator="out"/>
<feColorMatrix type="matrix" values="0 0 0 0 0 0 0 0 0 0 0 0 0 0 0 0 0 0 0.25 0"/>
<feBlend mode="normal" in2="BackgroundImageFix" result="effect1_dropShadow_137_3289"/>
<feBlend mode="normal" in="SourceGraphic" in2="effect1_dropShadow_137_3289" result="shape"/>
</filter>
<linearGradient id="paint0_linear_137_3289" x1="18.6024" y1="3.51573" x2="19.5968" y2="27.6815" gradientUnits="userSpaceOnUse">
<stop stop-color="#4880FF" style="stop-color:#4880FF;stop-color:color(display-p3 0.2824 0.5020 1.0000);stop-opacity:1;"/>
<stop offset="1" stop-color="#2B4D99" style="stop-color:#2B4D99;stop-color:color(display-p3 0.1686 0.3020 0.6000);stop-opacity:1;"/>
</linearGradient>
<linearGradient id="paint1_linear_137_3289" x1="19.2902" y1="11.056" x2="19.8021" y2="20.1046" gradientUnits="userSpaceOnUse">
<stop stop-color="#4880FF" style="stop-color:#4880FF;stop-color:color(display-p3 0.2824 0.5020 1.0000);stop-opacity:1;"/>
<stop offset="1" stop-color="#2B4D99" style="stop-color:#2B4D99;stop-color:color(display-p3 0.1686 0.3020 0.6000);stop-opacity:1;"/>
</linearGradient>
</defs>
</svg>
