<svg width="20" height="20" viewBox="0 0 20 20" fill="none" xmlns="http://www.w3.org/2000/svg">
<path d="M20 0H0V6.04102H1V17.1162C1 17.6503 1.21071 18.1625 1.58579 18.5401C1.96086 18.9177 2.46957 19.1299 3 19.1299H17C17.5304 19.1299 18.0391 18.9177 18.4142 18.5401C18.7893 18.1625 19 17.6503 19 17.1162V6.04102H20V0ZM2 2.01367H18V4.02734H2V2.01367ZM17 17.1162H3V6.04102H17V17.1162ZM7 8.05469H13C13 8.58875 12.7893 9.10093 12.4142 9.47857C12.0391 9.8562 11.5304 10.0684 11 10.0684H9C8.46957 10.0684 7.96086 9.8562 7.58579 9.47857C7.21071 9.10093 7 8.58875 7 8.05469Z" fill="#E5F8FF" style="fill:#E5F8FF;fill:color(display-p3 0.8980 0.9725 1.0000);fill-opacity:1;"/>
</svg>
