<svg width="24" height="25" viewBox="0 0 24 25" fill="none" xmlns="http://www.w3.org/2000/svg">
<path d="M7 7.04791V5.03424C7.00001 4.45115 7.16765 3.88054 7.48266 3.39127C7.79768 2.902 8.24662 2.51499 8.77529 2.27696C9.30395 2.03892 9.88975 1.96003 10.462 2.04982C11.0342 2.13961 11.5683 2.39423 12 2.78295C12.4317 2.39423 12.9658 2.13961 13.538 2.04982C14.1103 1.96003 14.696 2.03892 15.2247 2.27696C15.7534 2.51499 16.2023 2.902 16.5173 3.39127C16.8324 3.88054 17 4.45115 17 5.03424V7.04791H18.5C18.8978 7.04791 19.2794 7.20702 19.5607 7.49025C19.842 7.77348 20 8.15762 20 8.55816V18.6316C20 19.5648 19.6318 20.4599 18.9763 21.1198C18.3209 21.7797 17.4319 22.1504 16.505 22.1504H8C6.93913 22.1504 5.92172 21.7261 5.17157 20.9709C4.42143 20.2156 4 19.1912 4 18.1231V8.55816C4 8.15762 4.15804 7.77348 4.43934 7.49025C4.72064 7.20702 5.10218 7.04791 5.5 7.04791H7ZM13.635 20.6402C13.2283 20.0504 13.0102 19.3496 13.01 18.6316V8.55816H5.5V18.1231C5.5 18.4537 5.56466 18.781 5.6903 19.0864C5.81594 19.3917 6.00009 19.6692 6.23223 19.903C6.46438 20.1367 6.73998 20.3221 7.04329 20.4486C7.34661 20.5751 7.6717 20.6402 8 20.6402H13.635ZM11.5 7.04791V5.03424C11.5 4.63369 11.342 4.24955 11.0607 3.96632C10.7794 3.6831 10.3978 3.52398 10 3.52398C9.60218 3.52398 9.22064 3.6831 8.93934 3.96632C8.65804 4.24955 8.5 4.63369 8.5 5.03424V7.04791H11.5ZM13 7.04791H15.5V5.03424C15.5 4.72336 15.4048 4.42005 15.2272 4.1657C15.0497 3.91136 14.7985 3.71837 14.508 3.61309C14.2175 3.5078 13.9018 3.49535 13.604 3.57743C13.3062 3.65951 13.0408 3.83212 12.844 4.0717C12.945 4.37375 13 4.69795 13 5.03424V7.04791ZM14.51 18.6316C14.51 19.1643 14.7202 19.6752 15.0943 20.0519C15.4685 20.4286 15.9759 20.6402 16.505 20.6402C17.0341 20.6402 17.5415 20.4286 17.9157 20.0519C18.2898 19.6752 18.5 19.1643 18.5 18.6316V8.55816H14.51V18.6316Z" fill="#E5F8FF" style="fill:#E5F8FF;fill:color(display-p3 0.8980 0.9725 1.0000);fill-opacity:1;"/>
</svg>
