<svg width="114" height="20" viewBox="0 0 114 20" fill="none" xmlns="http://www.w3.org/2000/svg">
<path d="M5.44531 9.92969H2.53906L2.52344 8.41406H5.01562C5.44271 8.41406 5.79948 8.35417 6.08594 8.23438C6.3724 8.11458 6.58854 7.9401 6.73438 7.71094C6.88542 7.48177 6.96094 7.20312 6.96094 6.875C6.96094 6.51042 6.89062 6.21354 6.75 5.98438C6.61458 5.75521 6.40104 5.58854 6.10938 5.48438C5.81771 5.375 5.44792 5.32031 5 5.32031H3.23438V15H1.08594V3.625H5C5.64583 3.625 6.22135 3.6875 6.72656 3.8125C7.23698 3.93229 7.66927 4.11979 8.02344 4.375C8.3776 4.63021 8.64583 4.95052 8.82812 5.33594C9.01562 5.72135 9.10938 6.17969 9.10938 6.71094C9.10938 7.17969 9 7.61198 8.78125 8.00781C8.56771 8.39844 8.23698 8.71615 7.78906 8.96094C7.34635 9.20573 6.78385 9.34635 6.10156 9.38281L5.44531 9.92969ZM5.35156 15H1.90625L2.80469 13.3125H5.35156C5.77865 13.3125 6.13021 13.2422 6.40625 13.1016C6.6875 12.9609 6.89583 12.7682 7.03125 12.5234C7.17188 12.2734 7.24219 11.987 7.24219 11.6641C7.24219 11.3099 7.17969 11.0026 7.05469 10.7422C6.9349 10.4818 6.74219 10.2812 6.47656 10.1406C6.21615 10 5.8724 9.92969 5.44531 9.92969H3.21094L3.22656 8.41406H6.07031L6.5625 9C7.21875 9.00521 7.7526 9.13542 8.16406 9.39062C8.58073 9.64583 8.88802 9.97396 9.08594 10.375C9.28385 10.776 9.38281 11.2083 9.38281 11.6719C9.38281 12.401 9.22396 13.013 8.90625 13.5078C8.59375 14.0026 8.13542 14.375 7.53125 14.625C6.93229 14.875 6.20573 15 5.35156 15ZM14.8828 15.1562C14.2422 15.1562 13.6667 15.0521 13.1562 14.8438C12.6458 14.6354 12.2109 14.3464 11.8516 13.9766C11.4974 13.6016 11.224 13.1667 11.0312 12.6719C10.8438 12.1719 10.75 11.6354 10.75 11.0625V10.75C10.75 10.099 10.8438 9.50781 11.0312 8.97656C11.2188 8.4401 11.4844 7.97917 11.8281 7.59375C12.1719 7.20833 12.5833 6.91146 13.0625 6.70312C13.5417 6.49479 14.0703 6.39062 14.6484 6.39062C15.2474 6.39062 15.776 6.49219 16.2344 6.69531C16.6927 6.89323 17.0755 7.17448 17.3828 7.53906C17.6901 7.90365 17.9219 8.34115 18.0781 8.85156C18.2344 9.35677 18.3125 9.91667 18.3125 10.5312V11.3984H11.6875V9.97656H16.2812V9.82031C16.2708 9.49219 16.2083 9.19271 16.0938 8.92188C15.9792 8.64583 15.8021 8.42708 15.5625 8.26562C15.3229 8.09896 15.013 8.01562 14.6328 8.01562C14.3255 8.01562 14.0573 8.08333 13.8281 8.21875C13.6042 8.34896 13.4167 8.53646 13.2656 8.78125C13.1198 9.02083 13.0104 9.30729 12.9375 9.64062C12.8646 9.97396 12.8281 10.3438 12.8281 10.75V11.0625C12.8281 11.4167 12.875 11.7448 12.9688 12.0469C13.0677 12.349 13.2109 12.612 13.3984 12.8359C13.5911 13.0547 13.8203 13.2266 14.0859 13.3516C14.3568 13.4714 14.6641 13.5312 15.0078 13.5312C15.4401 13.5312 15.8307 13.4479 16.1797 13.2812C16.5339 13.1094 16.8411 12.8568 17.1016 12.5234L18.1406 13.6016C17.9635 13.862 17.724 14.112 17.4219 14.3516C17.125 14.5911 16.7656 14.7865 16.3438 14.9375C15.9219 15.0833 15.4349 15.1562 14.8828 15.1562ZM24.3438 12.6875C24.3438 12.5104 24.2969 12.3516 24.2031 12.2109C24.1094 12.0703 23.9323 11.9427 23.6719 11.8281C23.4167 11.7083 23.0417 11.5964 22.5469 11.4922C22.1094 11.3984 21.7057 11.2812 21.3359 11.1406C20.9661 11 20.6484 10.8307 20.3828 10.6328C20.1172 10.4297 19.9089 10.1927 19.7578 9.92188C19.612 9.64583 19.5391 9.32812 19.5391 8.96875C19.5391 8.61979 19.6146 8.29167 19.7656 7.98438C19.9167 7.67188 20.1354 7.39844 20.4219 7.16406C20.7083 6.92448 21.0573 6.73698 21.4688 6.60156C21.8802 6.46094 22.3438 6.39062 22.8594 6.39062C23.5781 6.39062 24.1953 6.50781 24.7109 6.74219C25.2318 6.97656 25.6302 7.29948 25.9062 7.71094C26.1823 8.11719 26.3203 8.57552 26.3203 9.08594H24.2578C24.2578 8.86198 24.2057 8.65885 24.1016 8.47656C24.0026 8.29427 23.849 8.14844 23.6406 8.03906C23.4323 7.92448 23.1693 7.86719 22.8516 7.86719C22.5651 7.86719 22.3229 7.91406 22.125 8.00781C21.9323 8.10156 21.7865 8.22396 21.6875 8.375C21.5885 8.52604 21.5391 8.69271 21.5391 8.875C21.5391 9.01042 21.5651 9.13281 21.6172 9.24219C21.6745 9.34635 21.7656 9.44271 21.8906 9.53125C22.0156 9.61979 22.1849 9.70052 22.3984 9.77344C22.6172 9.84635 22.8854 9.91667 23.2031 9.98438C23.8333 10.1094 24.3828 10.276 24.8516 10.4844C25.3255 10.6875 25.6953 10.9583 25.9609 11.2969C26.2266 11.6354 26.3594 12.0677 26.3594 12.5938C26.3594 12.9688 26.2786 13.3125 26.1172 13.625C25.9557 13.9323 25.7214 14.2005 25.4141 14.4297C25.1068 14.6589 24.7396 14.8385 24.3125 14.9688C23.8854 15.0938 23.4036 15.1562 22.8672 15.1562C22.0911 15.1562 21.4349 15.0182 20.8984 14.7422C20.362 14.4609 19.9557 14.1068 19.6797 13.6797C19.4036 13.2474 19.2656 12.7995 19.2656 12.3359H21.2422C21.2578 12.6641 21.3464 12.9271 21.5078 13.125C21.6693 13.3229 21.8724 13.4661 22.1172 13.5547C22.3672 13.638 22.6302 13.6797 22.9062 13.6797C23.2188 13.6797 23.4818 13.638 23.6953 13.5547C23.9089 13.4661 24.0703 13.349 24.1797 13.2031C24.2891 13.0521 24.3438 12.8802 24.3438 12.6875ZM31.9297 6.54688V8.03125H27.0859V6.54688H31.9297ZM28.3828 4.46875H30.4531V12.5625C30.4531 12.8125 30.487 13.0052 30.5547 13.1406C30.6224 13.276 30.724 13.3672 30.8594 13.4141C30.9948 13.4609 31.1562 13.4844 31.3438 13.4844C31.4792 13.4844 31.6042 13.4766 31.7188 13.4609C31.8333 13.4453 31.9297 13.4297 32.0078 13.4141L32.0156 14.9609C31.8438 15.0182 31.6484 15.0651 31.4297 15.1016C31.2161 15.138 30.974 15.1562 30.7031 15.1562C30.2396 15.1562 29.8333 15.0781 29.4844 14.9219C29.1354 14.7604 28.8646 14.5026 28.6719 14.1484C28.4792 13.7891 28.3828 13.3151 28.3828 12.7266V4.46875ZM37.8203 9.92969H34.9141L34.8984 8.41406H37.3906C37.8177 8.41406 38.1745 8.35417 38.4609 8.23438C38.7474 8.11458 38.9635 7.9401 39.1094 7.71094C39.2604 7.48177 39.3359 7.20312 39.3359 6.875C39.3359 6.51042 39.2656 6.21354 39.125 5.98438C38.9896 5.75521 38.776 5.58854 38.4844 5.48438C38.1927 5.375 37.8229 5.32031 37.375 5.32031H35.6094V15H33.4609V3.625H37.375C38.0208 3.625 38.5964 3.6875 39.1016 3.8125C39.612 3.93229 40.0443 4.11979 40.3984 4.375C40.7526 4.63021 41.0208 4.95052 41.2031 5.33594C41.3906 5.72135 41.4844 6.17969 41.4844 6.71094C41.4844 7.17969 41.375 7.61198 41.1562 8.00781C40.9427 8.39844 40.612 8.71615 40.1641 8.96094C39.7214 9.20573 39.1589 9.34635 38.4766 9.38281L37.8203 9.92969ZM37.7266 15H34.2812L35.1797 13.3125H37.7266C38.1536 13.3125 38.5052 13.2422 38.7812 13.1016C39.0625 12.9609 39.2708 12.7682 39.4062 12.5234C39.5469 12.2734 39.6172 11.987 39.6172 11.6641C39.6172 11.3099 39.5547 11.0026 39.4297 10.7422C39.3099 10.4818 39.1172 10.2812 38.8516 10.1406C38.5911 10 38.2474 9.92969 37.8203 9.92969H35.5859L35.6016 8.41406H38.4453L38.9375 9C39.5938 9.00521 40.1276 9.13542 40.5391 9.39062C40.9557 9.64583 41.263 9.97396 41.4609 10.375C41.6589 10.776 41.7578 11.2083 41.7578 11.6719C41.7578 12.401 41.599 13.013 41.2812 13.5078C40.9688 14.0026 40.5104 14.375 39.9062 14.625C39.3073 14.875 38.5807 15 37.7266 15ZM48.4922 12.9922V6.54688H50.5703V15H48.6172L48.4922 12.9922ZM48.7578 11.2422L49.3984 11.2266C49.3984 11.7943 49.3359 12.3177 49.2109 12.7969C49.0859 13.276 48.8906 13.6927 48.625 14.0469C48.3646 14.3958 48.0339 14.6693 47.6328 14.8672C47.2318 15.0599 46.7578 15.1562 46.2109 15.1562C45.7943 15.1562 45.4141 15.099 45.0703 14.9844C44.7266 14.8646 44.4297 14.6797 44.1797 14.4297C43.9349 14.1745 43.7448 13.849 43.6094 13.4531C43.474 13.0521 43.4062 12.5703 43.4062 12.0078V6.54688H45.4688V12.0234C45.4688 12.3047 45.5 12.5391 45.5625 12.7266C45.6302 12.9141 45.7214 13.0677 45.8359 13.1875C45.9557 13.3021 46.0938 13.3854 46.25 13.4375C46.4115 13.4844 46.5833 13.5078 46.7656 13.5078C47.2656 13.5078 47.6589 13.4089 47.9453 13.2109C48.237 13.0078 48.4453 12.737 48.5703 12.3984C48.6953 12.0547 48.7578 11.6693 48.7578 11.2422ZM54.875 14.0625L57.1406 6.54688H59.3516L55.9609 16.2812C55.8828 16.4896 55.7812 16.7161 55.6562 16.9609C55.5365 17.2057 55.375 17.4375 55.1719 17.6562C54.9688 17.8802 54.7135 18.0625 54.4062 18.2031C54.1042 18.3438 53.737 18.4141 53.3047 18.4141C53.1172 18.4141 52.9505 18.401 52.8047 18.375C52.6589 18.349 52.5052 18.3151 52.3438 18.2734V16.7266C52.3958 16.7318 52.4557 16.7344 52.5234 16.7344C52.5964 16.7396 52.6589 16.7422 52.7109 16.7422C53.013 16.7422 53.263 16.7057 53.4609 16.6328C53.6589 16.5651 53.8177 16.4531 53.9375 16.2969C54.0625 16.1458 54.1667 15.9479 54.25 15.7031L54.875 14.0625ZM53.7578 6.54688L55.6719 12.7734L56.0078 14.9531L54.5859 15.2109L51.5312 6.54688H53.7578ZM68.8672 10.8516H65.9375V9.16406H68.8672C69.3464 9.16406 69.7344 9.08594 70.0312 8.92969C70.3333 8.76823 70.5547 8.54948 70.6953 8.27344C70.8359 7.99219 70.9062 7.67188 70.9062 7.3125C70.9062 6.96354 70.8359 6.63802 70.6953 6.33594C70.5547 6.03385 70.3333 5.78906 70.0312 5.60156C69.7344 5.41406 69.3464 5.32031 68.8672 5.32031H66.6406V15H64.4922V3.625H68.8672C69.7526 3.625 70.5078 3.78385 71.1328 4.10156C71.763 4.41406 72.2422 4.84896 72.5703 5.40625C72.9036 5.95833 73.0703 6.58854 73.0703 7.29688C73.0703 8.03125 72.9036 8.66406 72.5703 9.19531C72.2422 9.72656 71.763 10.1354 71.1328 10.4219C70.5078 10.7083 69.7526 10.8516 68.8672 10.8516ZM76.6641 8.27344V15H74.6016V6.54688H76.5547L76.6641 8.27344ZM79.2344 6.49219L79.2031 8.41406C79.0885 8.39323 78.9583 8.3776 78.8125 8.36719C78.6719 8.35677 78.5391 8.35156 78.4141 8.35156C78.0964 8.35156 77.8177 8.39583 77.5781 8.48438C77.3385 8.56771 77.138 8.6901 76.9766 8.85156C76.8203 9.01302 76.7005 9.21094 76.6172 9.44531C76.5339 9.67448 76.487 9.9349 76.4766 10.2266L76.0312 10.1719C76.0312 9.63542 76.0859 9.13802 76.1953 8.67969C76.3047 8.22135 76.4635 7.82031 76.6719 7.47656C76.8802 7.13281 77.1406 6.86719 77.4531 6.67969C77.7708 6.48698 78.1354 6.39062 78.5469 6.39062C78.6615 6.39062 78.7839 6.40104 78.9141 6.42188C79.0495 6.4375 79.1562 6.46094 79.2344 6.49219ZM82.5547 6.54688V15H80.4844V6.54688H82.5547ZM80.3438 4.33594C80.3438 4.02865 80.4479 3.77344 80.6562 3.57031C80.8698 3.36719 81.1562 3.26562 81.5156 3.26562C81.875 3.26562 82.1589 3.36719 82.3672 3.57031C82.5807 3.77344 82.6875 4.02865 82.6875 4.33594C82.6875 4.63802 82.5807 4.89062 82.3672 5.09375C82.1589 5.29688 81.875 5.39844 81.5156 5.39844C81.1562 5.39844 80.8698 5.29688 80.6562 5.09375C80.4479 4.89062 80.3438 4.63802 80.3438 4.33594ZM87.9922 13.5312C88.2839 13.5312 88.5443 13.474 88.7734 13.3594C89.0026 13.2448 89.1849 13.0833 89.3203 12.875C89.4609 12.6667 89.5365 12.4245 89.5469 12.1484H91.4922C91.4818 12.7214 91.3203 13.2344 91.0078 13.6875C90.6953 14.1406 90.2786 14.5 89.7578 14.7656C89.2422 15.026 88.6641 15.1562 88.0234 15.1562C87.3724 15.1562 86.8047 15.0469 86.3203 14.8281C85.8359 14.6094 85.4323 14.3047 85.1094 13.9141C84.7917 13.5234 84.5521 13.0703 84.3906 12.5547C84.2344 12.0391 84.1562 11.487 84.1562 10.8984V10.6484C84.1562 10.0599 84.2344 9.50781 84.3906 8.99219C84.5521 8.47656 84.7917 8.02344 85.1094 7.63281C85.4323 7.24219 85.8359 6.9375 86.3203 6.71875C86.8047 6.5 87.3698 6.39062 88.0156 6.39062C88.6979 6.39062 89.2969 6.52344 89.8125 6.78906C90.3333 7.05469 90.7396 7.42969 91.0312 7.91406C91.3281 8.39844 91.4818 8.96875 91.4922 9.625H89.5469C89.5365 9.32292 89.4688 9.05208 89.3438 8.8125C89.2188 8.57292 89.0417 8.38021 88.8125 8.23438C88.5833 8.08854 88.3047 8.01562 87.9766 8.01562C87.6276 8.01562 87.3359 8.08854 87.1016 8.23438C86.8724 8.38021 86.6927 8.58073 86.5625 8.83594C86.4375 9.08594 86.349 9.36719 86.2969 9.67969C86.25 9.98698 86.2266 10.3099 86.2266 10.6484V10.8984C86.2266 11.2422 86.25 11.5703 86.2969 11.8828C86.349 12.1953 86.4375 12.4766 86.5625 12.7266C86.6927 12.9714 86.8724 13.1667 87.1016 13.3125C87.3359 13.4583 87.6328 13.5312 87.9922 13.5312ZM96.6641 15.1562C96.0234 15.1562 95.4479 15.0521 94.9375 14.8438C94.4271 14.6354 93.9922 14.3464 93.6328 13.9766C93.2786 13.6016 93.0052 13.1667 92.8125 12.6719C92.625 12.1719 92.5312 11.6354 92.5312 11.0625V10.75C92.5312 10.099 92.625 9.50781 92.8125 8.97656C93 8.4401 93.2656 7.97917 93.6094 7.59375C93.9531 7.20833 94.3646 6.91146 94.8438 6.70312C95.3229 6.49479 95.8516 6.39062 96.4297 6.39062C97.0286 6.39062 97.5573 6.49219 98.0156 6.69531C98.474 6.89323 98.8568 7.17448 99.1641 7.53906C99.4714 7.90365 99.7031 8.34115 99.8594 8.85156C100.016 9.35677 100.094 9.91667 100.094 10.5312V11.3984H93.4688V9.97656H98.0625V9.82031C98.0521 9.49219 97.9896 9.19271 97.875 8.92188C97.7604 8.64583 97.5833 8.42708 97.3438 8.26562C97.1042 8.09896 96.7943 8.01562 96.4141 8.01562C96.1068 8.01562 95.8385 8.08333 95.6094 8.21875C95.3854 8.34896 95.1979 8.53646 95.0469 8.78125C94.901 9.02083 94.7917 9.30729 94.7188 9.64062C94.6458 9.97396 94.6094 10.3438 94.6094 10.75V11.0625C94.6094 11.4167 94.6562 11.7448 94.75 12.0469C94.849 12.349 94.9922 12.612 95.1797 12.8359C95.3724 13.0547 95.6016 13.2266 95.8672 13.3516C96.138 13.4714 96.4453 13.5312 96.7891 13.5312C97.2214 13.5312 97.612 13.4479 97.9609 13.2812C98.3151 13.1094 98.6224 12.8568 98.8828 12.5234L99.9219 13.6016C99.7448 13.862 99.5052 14.112 99.2031 14.3516C98.9062 14.5911 98.5469 14.7865 98.125 14.9375C97.7031 15.0833 97.2161 15.1562 96.6641 15.1562Z" fill="#0D2155" style="fill:#0D2155;fill:color(display-p3 0.0510 0.1294 0.3333);fill-opacity:1;"/>
<path d="M108 5.88667L110.072 8L110.993 7.06L108 4L105 7.06L105.928 8L108 5.88667ZM108 14.1133L105.928 12L105.007 12.94L108 16L111 12.94L110.072 12L108 14.1133Z" fill="#0C32A4" style="fill:#0C32A4;fill:color(display-p3 0.0471 0.1961 0.6431);fill-opacity:1;"/>
</svg>
