<svg width="72" height="72" viewBox="0 0 72 72" fill="none" xmlns="http://www.w3.org/2000/svg">
<path opacity="0.21" fill-rule="evenodd" clip-rule="evenodd" d="M0 35.62V48.24C0 60.9425 10.2974 71.24 23 71.24H35.62H48.24C60.9425 71.24 71.24 60.9425 71.24 48.24V35.62V23C71.24 10.2975 60.9425 0 48.24 0H35.62H23C10.2975 0 0 10.2974 0 23V35.62Z" fill="#FEC53D" style="fill:#FEC53D;fill:color(display-p3 0.9961 0.7725 0.2392);fill-opacity:1;"/>
<path d="M51.64 42.8276V29.2098C51.6394 28.6128 51.4818 28.0265 51.183 27.5096C50.8842 26.9927 50.4548 26.5635 49.9378 26.265L38.0222 19.4561C37.5047 19.1573 36.9176 19 36.32 19C35.7224 19 35.1353 19.1573 34.6178 19.4561L22.7022 26.265C22.1852 26.5635 21.7558 26.9927 21.457 27.5096C21.1582 28.0265 21.0006 28.6128 21 29.2098V42.8276C21.0006 43.4246 21.1582 44.011 21.457 44.5279C21.7558 45.0447 22.1852 45.474 22.7022 45.7725L34.6178 52.5813C35.1353 52.8802 35.7224 53.0375 36.32 53.0375C36.9176 53.0375 37.5047 52.8802 38.0222 52.5813L49.9378 45.7725C50.4548 45.474 50.8842 45.0447 51.183 44.5279C51.4818 44.011 51.6394 43.4246 51.64 42.8276Z" stroke="#FEC53D" style="stroke:#FEC53D;stroke:color(display-p3 0.9961 0.7725 0.2392);stroke-opacity:1;" stroke-width="2" stroke-linecap="round" stroke-linejoin="round"/>
<path d="M21.4595 27.4395L36.3199 36.0358L51.1803 27.4395" stroke="#FEC53D" style="stroke:#FEC53D;stroke:color(display-p3 0.9961 0.7725 0.2392);stroke-opacity:1;" stroke-width="2" stroke-linecap="round" stroke-linejoin="round"/>
<path d="M36.3198 53.1771V36.0187" stroke="#E5A100" style="stroke:#E5A100;stroke:color(display-p3 0.8970 0.6321 0.0000);stroke-opacity:1;" stroke-width="2" stroke-linecap="round" stroke-linejoin="round"/>
</svg>
