<?xml version="1.0" encoding="UTF-8"?>
<svg id="Layer_1" data-name="Layer 1" xmlns="http://www.w3.org/2000/svg" version="1.1" viewBox="0 0 47 47">
  <defs>
    <style>
      .cls-1 {
        stroke: #fec53d;
      }

      .cls-1, .cls-2 {
        fill: none;
        stroke-linecap: round;
        stroke-linejoin: round;
        stroke-width: 2px;
      }

      .cls-2 {
        stroke: #e5a100;
      }

      .cls-3 {
        fill: #fec53d;
        fill-rule: evenodd;
        isolation: isolate;
        opacity: .2;
        stroke-width: 0px;
      }
    </style>
  </defs>
  <path class="cls-3" d="M0,23.5v.5c0,12.7,10.3,23,23,23h.9c12.7,0,23-10.3,23-23v-.9C46.9,10.3,36.6,0,23.9,0h-.9C10.3,0,0,10.3,0,23v.5Z"/>
  <path class="cls-1" d="M32.9,27.6v-7.9c0-.3,0-.7-.3-1-.2-.3-.4-.5-.7-.7l-6.9-3.9c-.3-.2-.6-.3-1-.3s-.7,0-1,.3l-6.9,3.9c-.3.2-.5.4-.7.7-.2.3-.3.6-.3,1v7.9c0,.3,0,.7.3,1,.2.3.4.5.7.7l6.9,3.9c.3.2.6.3,1,.3s.7,0,1-.3l6.9-3.9c.3-.2.5-.4.7-.7.2-.3.3-.6.3-1Z"/>
  <path class="cls-1" d="M15.4,18.7l8.6,5,8.6-5"/>
  <path class="cls-2" d="M24,33.6v-9.9"/>
</svg>