<?xml version="1.0" encoding="UTF-8"?>
<svg id="Layer_1" data-name="Layer 1" xmlns="http://www.w3.org/2000/svg" version="1.1" viewBox="0 0 47 47">
  <defs>
    <style>
      .cls-1 {
        fill: #ff9066;
        fill-rule: evenodd;
        isolation: isolate;
        opacity: .2;
        stroke-width: 0px;
      }

      .cls-2 {
        stroke: #ff5818;
      }

      .cls-2, .cls-3 {
        fill: none;
        stroke-linecap: round;
        stroke-linejoin: round;
        stroke-width: 2px;
      }

      .cls-3 {
        stroke: #ff9066;
      }
    </style>
  </defs>
  <path class="cls-1" d="M0,23.5v.5c0,12.7,10.3,23,23,23h.9c12.7,0,23-10.3,23-23v-.9C46.9,10.3,36.6,0,23.9,0h-.9C10.3,0,0,10.3,0,23v.5Z"/>
  <path class="cls-3" d="M30.6,22.9v.7c0,1.5-.5,3-1.4,4.2-.9,1.2-2.2,2.1-3.7,2.5-1.5.4-3,.4-4.5-.1-1.4-.5-2.7-1.5-3.5-2.8-.8-1.3-1.2-2.8-1.1-4.3.1-1.5.7-3,1.7-4.1,1-1.2,2.3-2,3.8-2.3,1.5-.3,3-.2,4.4.4"/>
  <path class="cls-2" d="M30.6,17.9l-7.1,7.1-2.1-2.1"/>
</svg>