<?xml version="1.0" encoding="UTF-8"?>
<svg id="Layer_1" data-name="Layer 1" xmlns="http://www.w3.org/2000/svg" version="1.1" viewBox="0 0 47 47">
  <defs>
    <style>
      .cls-1 {
        fill: #006934;
        opacity: .5;
      }

      .cls-1, .cls-2, .cls-3 {
        stroke-width: 0px;
      }

      .cls-1, .cls-3 {
        isolation: isolate;
      }

      .cls-2, .cls-3 {
        fill: #4ad991;
      }

      .cls-3 {
        fill-rule: evenodd;
        opacity: .2;
      }
    </style>
  </defs>
  <path class="cls-3" d="M0,23.5v.5c0,12.7,10.3,23,23,23h.9c12.7,0,23-10.3,23-23v-.9C46.9,10.3,36.6,0,23.9,0h-.9C10.3,0,0,10.3,0,23v.5Z"/>
  <path class="cls-2" d="M18.1,29.2h12c.4,0,.8.4.8.8s-.4.8-.8.8h-12.8c-.4,0-.8-.4-.8-.8v-12.8c0-.4.4-.8.8-.8s.8.4.8.8v12Z"/>
  <path class="cls-1" d="M21,25.8c-.3.3-.8.3-1.1,0-.3-.3-.3-.8,0-1.1l3-3.2c.3-.3.8-.3,1.1,0l2.4,2,3.1-3.9c.3-.3.8-.4,1.1-.1.3.3.4.8.1,1.1l-3.6,4.5c-.3.4-.8.4-1.1.1l-2.4-2.1-2.5,2.6Z"/>
</svg>