<svg width="27" height="21" viewBox="0 0 27 21" fill="none" xmlns="http://www.w3.org/2000/svg">
<path d="M4.35938 4.625V16H2.21094V4.625H4.35938ZM10.0781 16H7.625L7.64062 14.3125H10.0781C10.7396 14.3125 11.2943 14.1667 11.7422 13.875C12.1901 13.5781 12.5286 13.1536 12.7578 12.6016C12.987 12.0443 13.1016 11.3776 13.1016 10.6016V10.0156C13.1016 9.41667 13.0365 8.88802 12.9062 8.42969C12.776 7.97135 12.5833 7.58594 12.3281 7.27344C12.0781 6.96094 11.7682 6.72396 11.3984 6.5625C11.0286 6.40104 10.6042 6.32031 10.125 6.32031H7.57812V4.625H10.125C10.8854 4.625 11.5781 4.7526 12.2031 5.00781C12.8333 5.26302 13.3776 5.63021 13.8359 6.10938C14.2995 6.58333 14.6536 7.15104 14.8984 7.8125C15.1484 8.47396 15.2734 9.21354 15.2734 10.0312V10.6016C15.2734 11.4141 15.1484 12.1536 14.8984 12.8203C14.6536 13.4818 14.2995 14.0495 13.8359 14.5234C13.3776 14.9974 12.8307 15.362 12.1953 15.6172C11.5599 15.8724 10.8542 16 10.0781 16ZM8.82812 4.625V16H6.67969V4.625H8.82812Z" fill="white" style="fill:white;fill-opacity:1;"/>
<path d="M24 5.88667L26.0719 8L26.9935 7.06L24 4L21 7.06L21.9281 8L24 5.88667ZM24 14.1133L21.9281 12L21.0065 12.94L24 16L27 12.94L26.0719 12L24 14.1133Z" fill="#E5F8FF" style="fill:#E5F8FF;fill:color(display-p3 0.8980 0.9725 1.0000);fill-opacity:1;"/>
</svg>
