<svg width="55" height="21" viewBox="0 0 55 21" fill="none" xmlns="http://www.w3.org/2000/svg">
<path d="M2.02344 4.625H3.88281L6.99219 13.1875L10.0938 4.625H11.9609L7.73438 16H6.24219L2.02344 4.625ZM1.08594 4.625H2.90625L3.23438 12.4922V16H1.08594V4.625ZM11.0703 4.625H12.8984V16H10.75V12.4922L11.0703 4.625ZM21.0391 13.0469C21.0391 12.8281 21.0052 12.6328 20.9375 12.4609C20.875 12.2839 20.7578 12.125 20.5859 11.9844C20.4193 11.8385 20.1823 11.6979 19.875 11.5625C19.5729 11.4219 19.1823 11.276 18.7031 11.125C18.1719 10.9583 17.6771 10.7708 17.2188 10.5625C16.7604 10.3542 16.3568 10.112 16.0078 9.83594C15.6641 9.5599 15.3958 9.24219 15.2031 8.88281C15.0104 8.51823 14.9141 8.09635 14.9141 7.61719C14.9141 7.14844 15.013 6.72135 15.2109 6.33594C15.4141 5.95052 15.7005 5.61979 16.0703 5.34375C16.4401 5.0625 16.875 4.84635 17.375 4.69531C17.8802 4.54427 18.4375 4.46875 19.0469 4.46875C19.8906 4.46875 20.6198 4.6224 21.2344 4.92969C21.8542 5.23698 22.3333 5.65365 22.6719 6.17969C23.0104 6.70573 23.1797 7.29688 23.1797 7.95312H21.0391C21.0391 7.59896 20.9635 7.28646 20.8125 7.01562C20.6667 6.74479 20.4427 6.53125 20.1406 6.375C19.8438 6.21875 19.4688 6.14062 19.0156 6.14062C18.5781 6.14062 18.2135 6.20573 17.9219 6.33594C17.6354 6.46615 17.4193 6.64323 17.2734 6.86719C17.1328 7.09115 17.0625 7.34115 17.0625 7.61719C17.0625 7.82552 17.112 8.01302 17.2109 8.17969C17.3099 8.34115 17.4583 8.49479 17.6562 8.64062C17.8542 8.78125 18.099 8.91406 18.3906 9.03906C18.6875 9.15885 19.0312 9.27865 19.4219 9.39844C20.0469 9.58594 20.5938 9.79427 21.0625 10.0234C21.5365 10.2526 21.9297 10.513 22.2422 10.8047C22.5599 11.0964 22.7969 11.4245 22.9531 11.7891C23.1146 12.1536 23.1953 12.5677 23.1953 13.0312C23.1953 13.5208 23.099 13.9583 22.9062 14.3438C22.7135 14.7292 22.4375 15.0573 22.0781 15.3281C21.7188 15.599 21.2865 15.8047 20.7812 15.9453C20.2812 16.0859 19.7214 16.1562 19.1016 16.1562C18.5495 16.1562 18.0026 16.0833 17.4609 15.9375C16.9245 15.7865 16.4375 15.5625 16 15.2656C15.5625 14.9635 15.2135 14.5833 14.9531 14.125C14.6927 13.6615 14.5625 13.1198 14.5625 12.5H16.7188C16.7188 12.8594 16.776 13.1667 16.8906 13.4219C17.0104 13.6719 17.1771 13.8776 17.3906 14.0391C17.6094 14.1953 17.8646 14.3099 18.1562 14.3828C18.4479 14.4557 18.763 14.4922 19.1016 14.4922C19.5391 14.4922 19.8984 14.4323 20.1797 14.3125C20.4661 14.1875 20.6797 14.0156 20.8203 13.7969C20.9661 13.5781 21.0391 13.3281 21.0391 13.0469ZM24.8516 4.625H28.9844C29.849 4.625 30.5911 4.75521 31.2109 5.01562C31.8307 5.27604 32.3073 5.66146 32.6406 6.17188C32.974 6.68229 33.1406 7.3099 33.1406 8.05469C33.1406 8.64323 33.0365 9.15365 32.8281 9.58594C32.6198 10.0182 32.3255 10.3802 31.9453 10.6719C31.5703 10.9635 31.1276 11.1927 30.6172 11.3594L29.9453 11.7031H26.2969L26.2812 10.0078H29.0078C29.4505 10.0078 29.8177 9.92969 30.1094 9.77344C30.401 9.61719 30.6198 9.40104 30.7656 9.125C30.9167 8.84896 30.9922 8.53385 30.9922 8.17969C30.9922 7.79948 30.9193 7.47135 30.7734 7.19531C30.6276 6.91406 30.4062 6.69792 30.1094 6.54688C29.8125 6.39583 29.4375 6.32031 28.9844 6.32031H27V16H24.8516V4.625ZM31.2734 16L28.6406 10.9062L30.9141 10.8984L33.5781 15.8906V16H31.2734ZM39.3984 11.8516H36.4688V10.1641H39.3984C39.8776 10.1641 40.2656 10.0859 40.5625 9.92969C40.8646 9.76823 41.0859 9.54948 41.2266 9.27344C41.3672 8.99219 41.4375 8.67188 41.4375 8.3125C41.4375 7.96354 41.3672 7.63802 41.2266 7.33594C41.0859 7.03385 40.8646 6.78906 40.5625 6.60156C40.2656 6.41406 39.8776 6.32031 39.3984 6.32031H37.1719V16H35.0234V4.625H39.3984C40.2839 4.625 41.0391 4.78385 41.6641 5.10156C42.2943 5.41406 42.7734 5.84896 43.1016 6.40625C43.4349 6.95833 43.6016 7.58854 43.6016 8.29688C43.6016 9.03125 43.4349 9.66406 43.1016 10.1953C42.7734 10.7266 42.2943 11.1354 41.6641 11.4219C41.0391 11.7083 40.2839 11.8516 39.3984 11.8516Z" fill="white" style="fill:white;fill-opacity:1;"/>
<path d="M52 5.88667L54.0719 8L54.9935 7.06L52 4L49 7.06L49.9281 8L52 5.88667ZM52 14.1133L49.9281 12L49.0065 12.94L52 16L55 12.94L54.0719 12L52 14.1133Z" fill="#E5F8FF" style="fill:#E5F8FF;fill:color(display-p3 0.8980 0.9725 1.0000);fill-opacity:1;"/>
</svg>
