<svg width="152" height="21" viewBox="0 0 152 21" fill="none" xmlns="http://www.w3.org/2000/svg">
<path d="M4.48438 16H2.03125L2.04688 14.3125H4.48438C5.14583 14.3125 5.70052 14.1667 6.14844 13.875C6.59635 13.5781 6.9349 13.1536 7.16406 12.6016C7.39323 12.0443 7.50781 11.3776 7.50781 10.6016V10.0156C7.50781 9.41667 7.44271 8.88802 7.3125 8.42969C7.18229 7.97135 6.98958 7.58594 6.73438 7.27344C6.48438 6.96094 6.17448 6.72396 5.80469 6.5625C5.4349 6.40104 5.01042 6.32031 4.53125 6.32031H1.98438V4.625H4.53125C5.29167 4.625 5.98438 4.7526 6.60938 5.00781C7.23958 5.26302 7.78385 5.63021 8.24219 6.10938C8.70573 6.58333 9.0599 7.15104 9.30469 7.8125C9.55469 8.47396 9.67969 9.21354 9.67969 10.0312V10.6016C9.67969 11.4141 9.55469 12.1536 9.30469 12.8203C9.0599 13.4818 8.70573 14.0495 8.24219 14.5234C7.78385 14.9974 7.23698 15.362 6.60156 15.6172C5.96615 15.8724 5.26042 16 4.48438 16ZM3.23438 4.625V16H1.08594V4.625H3.23438ZM15.1484 16.1562C14.5078 16.1562 13.9323 16.0521 13.4219 15.8438C12.9115 15.6354 12.4766 15.3464 12.1172 14.9766C11.763 14.6016 11.4896 14.1667 11.2969 13.6719C11.1094 13.1719 11.0156 12.6354 11.0156 12.0625V11.75C11.0156 11.099 11.1094 10.5078 11.2969 9.97656C11.4844 9.4401 11.75 8.97917 12.0938 8.59375C12.4375 8.20833 12.849 7.91146 13.3281 7.70312C13.8073 7.49479 14.3359 7.39062 14.9141 7.39062C15.513 7.39062 16.0417 7.49219 16.5 7.69531C16.9583 7.89323 17.3411 8.17448 17.6484 8.53906C17.9557 8.90365 18.1875 9.34115 18.3438 9.85156C18.5 10.3568 18.5781 10.9167 18.5781 11.5312V12.3984H11.9531V10.9766H16.5469V10.8203C16.5365 10.4922 16.474 10.1927 16.3594 9.92188C16.2448 9.64583 16.0677 9.42708 15.8281 9.26562C15.5885 9.09896 15.2786 9.01562 14.8984 9.01562C14.5911 9.01562 14.3229 9.08333 14.0938 9.21875C13.8698 9.34896 13.6823 9.53646 13.5312 9.78125C13.3854 10.0208 13.276 10.3073 13.2031 10.6406C13.1302 10.974 13.0938 11.3438 13.0938 11.75V12.0625C13.0938 12.4167 13.1406 12.7448 13.2344 13.0469C13.3333 13.349 13.4766 13.612 13.6641 13.8359C13.8568 14.0547 14.0859 14.2266 14.3516 14.3516C14.6224 14.4714 14.9297 14.5312 15.2734 14.5312C15.7057 14.5312 16.0964 14.4479 16.4453 14.2812C16.7995 14.1094 17.1068 13.8568 17.3672 13.5234L18.4062 14.6016C18.2292 14.862 17.9896 15.112 17.6875 15.3516C17.3906 15.5911 17.0312 15.7865 16.6094 15.9375C16.1875 16.0833 15.7005 16.1562 15.1484 16.1562ZM22.1484 4V16H20.0781V4H22.1484ZM26.3047 4V16H24.2344V4H26.3047ZM36.7891 11.8516H33.8594V10.1641H36.7891C37.2682 10.1641 37.6562 10.0859 37.9531 9.92969C38.2552 9.76823 38.4766 9.54948 38.6172 9.27344C38.7578 8.99219 38.8281 8.67188 38.8281 8.3125C38.8281 7.96354 38.7578 7.63802 38.6172 7.33594C38.4766 7.03385 38.2552 6.78906 37.9531 6.60156C37.6562 6.41406 37.2682 6.32031 36.7891 6.32031H34.5625V16H32.4141V4.625H36.7891C37.6745 4.625 38.4297 4.78385 39.0547 5.10156C39.6849 5.41406 40.1641 5.84896 40.4922 6.40625C40.8255 6.95833 40.9922 7.58854 40.9922 8.29688C40.9922 9.03125 40.8255 9.66406 40.4922 10.1953C40.1641 10.7266 39.6849 11.1354 39.0547 11.4219C38.4297 11.7083 37.6745 11.8516 36.7891 11.8516ZM44.5859 9.27344V16H42.5234V7.54688H44.4766L44.5859 9.27344ZM47.1562 7.49219L47.125 9.41406C47.0104 9.39323 46.8802 9.3776 46.7344 9.36719C46.5938 9.35677 46.4609 9.35156 46.3359 9.35156C46.0182 9.35156 45.7396 9.39583 45.5 9.48438C45.2604 9.56771 45.0599 9.6901 44.8984 9.85156C44.7422 10.013 44.6224 10.2109 44.5391 10.4453C44.4557 10.6745 44.4089 10.9349 44.3984 11.2266L43.9531 11.1719C43.9531 10.6354 44.0078 10.138 44.1172 9.67969C44.2266 9.22135 44.3854 8.82031 44.5938 8.47656C44.8021 8.13281 45.0625 7.86719 45.375 7.67969C45.6927 7.48698 46.0573 7.39062 46.4688 7.39062C46.5833 7.39062 46.7057 7.40104 46.8359 7.42188C46.9714 7.4375 47.0781 7.46094 47.1562 7.49219ZM47.7031 11.8594V11.6953C47.7031 11.0755 47.7917 10.5052 47.9688 9.98438C48.1458 9.45833 48.4036 9.0026 48.7422 8.61719C49.0807 8.23177 49.4948 7.93229 49.9844 7.71875C50.474 7.5 51.0312 7.39062 51.6562 7.39062C52.2917 7.39062 52.8542 7.5 53.3438 7.71875C53.8385 7.93229 54.2552 8.23177 54.5938 8.61719C54.9323 9.0026 55.1901 9.45833 55.3672 9.98438C55.5443 10.5052 55.6328 11.0755 55.6328 11.6953V11.8594C55.6328 12.474 55.5443 13.0443 55.3672 13.5703C55.1901 14.0911 54.9323 14.5469 54.5938 14.9375C54.2552 15.3229 53.8411 15.6224 53.3516 15.8359C52.862 16.0495 52.3021 16.1562 51.6719 16.1562C51.0469 16.1562 50.487 16.0495 49.9922 15.8359C49.4974 15.6224 49.0807 15.3229 48.7422 14.9375C48.4036 14.5469 48.1458 14.0911 47.9688 13.5703C47.7917 13.0443 47.7031 12.474 47.7031 11.8594ZM49.7656 11.6953V11.8594C49.7656 12.2292 49.8021 12.5755 49.875 12.8984C49.9479 13.2214 50.0599 13.5052 50.2109 13.75C50.362 13.9948 50.5573 14.1875 50.7969 14.3281C51.0417 14.4635 51.3333 14.5312 51.6719 14.5312C52.0052 14.5312 52.2917 14.4635 52.5312 14.3281C52.7708 14.1875 52.9661 13.9948 53.1172 13.75C53.2734 13.5052 53.388 13.2214 53.4609 12.8984C53.5339 12.5755 53.5703 12.2292 53.5703 11.8594V11.6953C53.5703 11.3307 53.5339 10.9896 53.4609 10.6719C53.388 10.349 53.2734 10.0651 53.1172 9.82031C52.9661 9.57031 52.7682 9.375 52.5234 9.23438C52.2839 9.08854 51.9948 9.01562 51.6562 9.01562C51.3229 9.01562 51.0365 9.08854 50.7969 9.23438C50.5573 9.375 50.362 9.57031 50.2109 9.82031C50.0599 10.0651 49.9479 10.349 49.875 10.6719C49.8021 10.9896 49.7656 11.3307 49.7656 11.6953ZM62.2031 14.2031V4H64.2812V16H62.4062L62.2031 14.2031ZM56.7734 11.875V11.7109C56.7734 11.0651 56.8464 10.4792 56.9922 9.95312C57.1432 9.42188 57.362 8.96615 57.6484 8.58594C57.9349 8.20573 58.2812 7.91146 58.6875 7.70312C59.099 7.49479 59.5651 7.39062 60.0859 7.39062C60.5911 7.39062 61.0312 7.49219 61.4062 7.69531C61.7865 7.89844 62.1094 8.1875 62.375 8.5625C62.6458 8.9375 62.862 9.38281 63.0234 9.89844C63.1849 10.4089 63.3021 10.9714 63.375 11.5859V12.0312C63.3021 12.6302 63.1849 13.1797 63.0234 13.6797C62.862 14.1797 62.6458 14.6172 62.375 14.9922C62.1094 15.362 61.7865 15.6484 61.4062 15.8516C61.026 16.0547 60.5807 16.1562 60.0703 16.1562C59.5547 16.1562 59.0911 16.0495 58.6797 15.8359C58.2734 15.6224 57.9271 15.3229 57.6406 14.9375C57.3594 14.5521 57.1432 14.099 56.9922 13.5781C56.8464 13.0573 56.7734 12.4896 56.7734 11.875ZM58.8438 11.7109V11.875C58.8438 12.2396 58.875 12.5807 58.9375 12.8984C59 13.2161 59.1016 13.4974 59.2422 13.7422C59.3828 13.9818 59.5625 14.1693 59.7812 14.3047C60.0052 14.4401 60.276 14.5078 60.5938 14.5078C61 14.5078 61.3333 14.4193 61.5938 14.2422C61.8594 14.0599 62.0651 13.8125 62.2109 13.5C62.3568 13.1823 62.4505 12.8255 62.4922 12.4297V11.2031C62.4714 10.8906 62.4167 10.6016 62.3281 10.3359C62.2448 10.0703 62.125 9.84115 61.9688 9.64844C61.8177 9.45573 61.6302 9.30469 61.4062 9.19531C61.1823 9.08594 60.9167 9.03125 60.6094 9.03125C60.2917 9.03125 60.0208 9.10156 59.7969 9.24219C59.5729 9.3776 59.3906 9.56771 59.25 9.8125C59.1094 10.0573 59.0052 10.3411 58.9375 10.6641C58.875 10.987 58.8438 11.3359 58.8438 11.7109ZM71.1797 13.9922V7.54688H73.2578V16H71.3047L71.1797 13.9922ZM71.4453 12.2422L72.0859 12.2266C72.0859 12.7943 72.0234 13.3177 71.8984 13.7969C71.7734 14.276 71.5781 14.6927 71.3125 15.0469C71.0521 15.3958 70.7214 15.6693 70.3203 15.8672C69.9193 16.0599 69.4453 16.1562 68.8984 16.1562C68.4818 16.1562 68.1016 16.099 67.7578 15.9844C67.4141 15.8646 67.1172 15.6797 66.8672 15.4297C66.6224 15.1745 66.4323 14.849 66.2969 14.4531C66.1615 14.0521 66.0938 13.5703 66.0938 13.0078V7.54688H68.1562V13.0234C68.1562 13.3047 68.1875 13.5391 68.25 13.7266C68.3177 13.9141 68.4089 14.0677 68.5234 14.1875C68.6432 14.3021 68.7812 14.3854 68.9375 14.4375C69.099 14.4844 69.2708 14.5078 69.4531 14.5078C69.9531 14.5078 70.3464 14.4089 70.6328 14.2109C70.9245 14.0078 71.1328 13.737 71.2578 13.3984C71.3828 13.0547 71.4453 12.6693 71.4453 12.2422ZM78.5547 14.5312C78.8464 14.5312 79.1068 14.474 79.3359 14.3594C79.5651 14.2448 79.7474 14.0833 79.8828 13.875C80.0234 13.6667 80.099 13.4245 80.1094 13.1484H82.0547C82.0443 13.7214 81.8828 14.2344 81.5703 14.6875C81.2578 15.1406 80.8411 15.5 80.3203 15.7656C79.8047 16.026 79.2266 16.1562 78.5859 16.1562C77.9349 16.1562 77.3672 16.0469 76.8828 15.8281C76.3984 15.6094 75.9948 15.3047 75.6719 14.9141C75.3542 14.5234 75.1146 14.0703 74.9531 13.5547C74.7969 13.0391 74.7188 12.487 74.7188 11.8984V11.6484C74.7188 11.0599 74.7969 10.5078 74.9531 9.99219C75.1146 9.47656 75.3542 9.02344 75.6719 8.63281C75.9948 8.24219 76.3984 7.9375 76.8828 7.71875C77.3672 7.5 77.9323 7.39062 78.5781 7.39062C79.2604 7.39062 79.8594 7.52344 80.375 7.78906C80.8958 8.05469 81.3021 8.42969 81.5938 8.91406C81.8906 9.39844 82.0443 9.96875 82.0547 10.625H80.1094C80.099 10.3229 80.0312 10.0521 79.9062 9.8125C79.7812 9.57292 79.6042 9.38021 79.375 9.23438C79.1458 9.08854 78.8672 9.01562 78.5391 9.01562C78.1901 9.01562 77.8984 9.08854 77.6641 9.23438C77.4349 9.38021 77.2552 9.58073 77.125 9.83594C77 10.0859 76.9115 10.3672 76.8594 10.6797C76.8125 10.987 76.7891 11.3099 76.7891 11.6484V11.8984C76.7891 12.2422 76.8125 12.5703 76.8594 12.8828C76.9115 13.1953 77 13.4766 77.125 13.7266C77.2552 13.9714 77.4349 14.1667 77.6641 14.3125C77.8984 14.4583 78.1953 14.5312 78.5547 14.5312ZM87.4297 7.54688V9.03125H82.5859V7.54688H87.4297ZM83.8828 5.46875H85.9531V13.5625C85.9531 13.8125 85.987 14.0052 86.0547 14.1406C86.1224 14.276 86.224 14.3672 86.3594 14.4141C86.4948 14.4609 86.6562 14.4844 86.8438 14.4844C86.9792 14.4844 87.1042 14.4766 87.2188 14.4609C87.3333 14.4453 87.4297 14.4297 87.5078 14.4141L87.5156 15.9609C87.3438 16.0182 87.1484 16.0651 86.9297 16.1016C86.7161 16.138 86.474 16.1562 86.2031 16.1562C85.7396 16.1562 85.3333 16.0781 84.9844 15.9219C84.6354 15.7604 84.3646 15.5026 84.1719 15.1484C83.9792 14.7891 83.8828 14.3151 83.8828 13.7266V5.46875ZM102.086 4.625V16H99.9297L95.0938 8.10938V16H92.9453V4.625H95.0938L99.9453 12.5234V4.625H102.086ZM108.773 14.2031V10.3047C108.773 10.0182 108.724 9.77083 108.625 9.5625C108.526 9.35417 108.375 9.19271 108.172 9.07812C107.969 8.96354 107.711 8.90625 107.398 8.90625C107.122 8.90625 106.88 8.95312 106.672 9.04688C106.469 9.14062 106.312 9.27344 106.203 9.44531C106.094 9.61198 106.039 9.80469 106.039 10.0234H103.969C103.969 9.67448 104.052 9.34375 104.219 9.03125C104.385 8.71354 104.622 8.43229 104.93 8.1875C105.242 7.9375 105.615 7.74219 106.047 7.60156C106.484 7.46094 106.974 7.39062 107.516 7.39062C108.156 7.39062 108.727 7.5 109.227 7.71875C109.732 7.93229 110.128 8.25521 110.414 8.6875C110.706 9.11979 110.852 9.66406 110.852 10.3203V14.0078C110.852 14.4297 110.878 14.7917 110.93 15.0938C110.987 15.3906 111.07 15.6484 111.18 15.8672V16H109.078C108.979 15.7865 108.904 15.5156 108.852 15.1875C108.799 14.8542 108.773 14.526 108.773 14.2031ZM109.062 10.8516L109.078 12.0781H107.773C107.451 12.0781 107.167 12.112 106.922 12.1797C106.677 12.2422 106.477 12.3359 106.32 12.4609C106.164 12.5807 106.047 12.7266 105.969 12.8984C105.891 13.0651 105.852 13.2552 105.852 13.4688C105.852 13.6771 105.898 13.8646 105.992 14.0312C106.091 14.1979 106.232 14.3307 106.414 14.4297C106.602 14.5234 106.82 14.5703 107.07 14.5703C107.435 14.5703 107.753 14.4974 108.023 14.3516C108.294 14.2005 108.505 14.0182 108.656 13.8047C108.807 13.5911 108.888 13.388 108.898 13.1953L109.492 14.0859C109.419 14.2995 109.31 14.526 109.164 14.7656C109.018 15.0052 108.831 15.2292 108.602 15.4375C108.372 15.6458 108.096 15.8177 107.773 15.9531C107.451 16.0885 107.076 16.1562 106.648 16.1562C106.102 16.1562 105.612 16.0469 105.18 15.8281C104.747 15.6094 104.406 15.3099 104.156 14.9297C103.906 14.5495 103.781 14.1172 103.781 13.6328C103.781 13.1849 103.865 12.7891 104.031 12.4453C104.198 12.1016 104.445 11.8125 104.773 11.5781C105.102 11.3385 105.508 11.1589 105.992 11.0391C106.482 10.9141 107.042 10.8516 107.672 10.8516H109.062ZM114.766 9.28125V16H112.703V7.54688H114.648L114.766 9.28125ZM114.461 11.4688H113.828C113.828 10.8802 113.898 10.3385 114.039 9.84375C114.185 9.34896 114.398 8.91927 114.68 8.55469C114.961 8.1849 115.307 7.89844 115.719 7.69531C116.135 7.49219 116.617 7.39062 117.164 7.39062C117.544 7.39062 117.893 7.44792 118.211 7.5625C118.529 7.67188 118.802 7.84635 119.031 8.08594C119.266 8.32031 119.445 8.6276 119.57 9.00781C119.695 9.38281 119.758 9.83333 119.758 10.3594V16H117.695V10.5703C117.695 10.1745 117.638 9.86458 117.523 9.64062C117.414 9.41667 117.255 9.26042 117.047 9.17188C116.839 9.07812 116.589 9.03125 116.297 9.03125C115.974 9.03125 115.695 9.09635 115.461 9.22656C115.232 9.35156 115.042 9.52604 114.891 9.75C114.745 9.97396 114.635 10.2318 114.562 10.5234C114.495 10.8151 114.461 11.1302 114.461 11.4688ZM119.602 11.0859L118.75 11.2422C118.755 10.7109 118.828 10.2135 118.969 9.75C119.109 9.28125 119.315 8.8724 119.586 8.52344C119.862 8.16927 120.203 7.89323 120.609 7.69531C121.021 7.49219 121.495 7.39062 122.031 7.39062C122.448 7.39062 122.823 7.45052 123.156 7.57031C123.495 7.6849 123.784 7.86979 124.023 8.125C124.263 8.375 124.445 8.70052 124.57 9.10156C124.701 9.5026 124.766 9.99219 124.766 10.5703V16H122.688V10.5625C122.688 10.151 122.63 9.83594 122.516 9.61719C122.406 9.39844 122.247 9.2474 122.039 9.16406C121.831 9.07552 121.586 9.03125 121.305 9.03125C121.018 9.03125 120.768 9.08594 120.555 9.19531C120.346 9.29948 120.169 9.44531 120.023 9.63281C119.883 9.82031 119.776 10.0391 119.703 10.2891C119.635 10.5339 119.602 10.7995 119.602 11.0859ZM130.414 16.1562C129.773 16.1562 129.198 16.0521 128.688 15.8438C128.177 15.6354 127.742 15.3464 127.383 14.9766C127.029 14.6016 126.755 14.1667 126.562 13.6719C126.375 13.1719 126.281 12.6354 126.281 12.0625V11.75C126.281 11.099 126.375 10.5078 126.562 9.97656C126.75 9.4401 127.016 8.97917 127.359 8.59375C127.703 8.20833 128.115 7.91146 128.594 7.70312C129.073 7.49479 129.602 7.39062 130.18 7.39062C130.779 7.39062 131.307 7.49219 131.766 7.69531C132.224 7.89323 132.607 8.17448 132.914 8.53906C133.221 8.90365 133.453 9.34115 133.609 9.85156C133.766 10.3568 133.844 10.9167 133.844 11.5312V12.3984H127.219V10.9766H131.812V10.8203C131.802 10.4922 131.74 10.1927 131.625 9.92188C131.51 9.64583 131.333 9.42708 131.094 9.26562C130.854 9.09896 130.544 9.01562 130.164 9.01562C129.857 9.01562 129.589 9.08333 129.359 9.21875C129.135 9.34896 128.948 9.53646 128.797 9.78125C128.651 10.0208 128.542 10.3073 128.469 10.6406C128.396 10.974 128.359 11.3438 128.359 11.75V12.0625C128.359 12.4167 128.406 12.7448 128.5 13.0469C128.599 13.349 128.742 13.612 128.93 13.8359C129.122 14.0547 129.352 14.2266 129.617 14.3516C129.888 14.4714 130.195 14.5312 130.539 14.5312C130.971 14.5312 131.362 14.4479 131.711 14.2812C132.065 14.1094 132.372 13.8568 132.633 13.5234L133.672 14.6016C133.495 14.862 133.255 15.112 132.953 15.3516C132.656 15.5911 132.297 15.7865 131.875 15.9375C131.453 16.0833 130.966 16.1562 130.414 16.1562Z" fill="white" style="fill:white;fill-opacity:1;"/>
<path d="M143 4.88667L145.072 7L145.993 6.06L143 3L140 6.06L140.928 7L143 4.88667ZM143 13.1133L140.928 11L140.007 11.94L143 15L146 11.94L145.072 11L143 13.1133Z" fill="#E5F8FF" style="fill:#E5F8FF;fill:color(display-p3 0.8980 0.9725 1.0000);fill-opacity:1;"/>
</svg>
