<?xml version="1.0" encoding="UTF-8"?>
<svg id="Layer_1" data-name="Layer 1" xmlns="http://www.w3.org/2000/svg" version="1.1" viewBox="0 0 47 47">
  <defs>
    <style>
      .cls-1 {
        fill: none;
        stroke: red;
      }

      .cls-1, .cls-2 {
        stroke-linecap: round;
        stroke-linejoin: round;
        stroke-width: 2px;
      }

      .cls-2 {
        fill: #fff;
        stroke: #fff;
      }

      .cls-3 {
        fill: red;
        fill-rule: evenodd;
        isolation: isolate;
        opacity: .3;
        stroke-width: 0px;
      }
    </style>
  </defs>
  <path class="cls-3" d="M0,23.5v.5c0,12.7,10.3,23,23,23h.9c12.7,0,23-10.3,23-23v-.9C46.9,10.3,36.6,0,23.9,0h-.9C10.3,0,0,10.3,0,23v.5Z"/>
  <path class="cls-2" d="M21.8,16.8l-6.6,11.1c-.1.2-.2.5-.2.8,0,.3,0,.5.2.8.1.2.3.4.6.6.2.1.5.2.8.2h13.3c.3,0,.5,0,.8-.2.2-.1.4-.3.6-.6.1-.2.2-.5.2-.8,0-.3,0-.5-.2-.8l-6.6-11.1c-.1-.2-.3-.4-.6-.6-.2-.1-.5-.2-.8-.2s-.5,0-.8.2c-.2.1-.4.3-.6.6Z"/>
  <path class="cls-1" d="M23.2,20.8v3.1"/>
  <path class="cls-1" d="M23.2,27h0"/>
</svg>