<?xml version="1.0" encoding="UTF-8"?>
<svg id="Layer_1" data-name="Layer 1" xmlns="http://www.w3.org/2000/svg" version="1.1" viewBox="0 0 22 22">
  <defs>
    <style>
      .cls-1 {
        fill: none;
        stroke: #e5f8ff;
        stroke-linecap: round;
        stroke-linejoin: round;
        stroke-width: 2px;
      }
    </style>
  </defs>
  <path class="cls-1" d="M11,13.7c1.5,0,2.7-1.2,2.7-2.7s-1.2-2.7-2.7-2.7-2.7,1.2-2.7,2.7,1.2,2.7,2.7,2.7Z"/>
  <path class="cls-1" d="M17.7,13.7c-.1.3-.2.6-.1.9,0,.3.2.6.4.8h0c.2.2.3.4.4.6,0,.2.1.5.1.7s0,.5-.1.7c0,.2-.2.4-.4.6-.2.2-.4.3-.6.4-.2,0-.5.1-.7.1s-.5,0-.7-.1c-.2,0-.4-.2-.6-.4h0c-.2-.3-.5-.4-.8-.5-.3,0-.6,0-.9.1-.3.1-.5.3-.7.6s-.2.5-.2.8v.2c0,.5-.2.9-.5,1.3-.3.3-.8.5-1.3.5s-.9-.2-1.3-.5c-.3-.3-.5-.8-.5-1.3h0c0-.4-.1-.7-.3-.9-.2-.2-.4-.4-.7-.5-.3-.1-.6-.2-.9-.1-.3,0-.6.2-.8.4h0c-.2.2-.4.4-.6.4-.2,0-.5.1-.7.1s-.5,0-.7-.1c-.2,0-.4-.2-.6-.4-.2-.2-.3-.4-.4-.6,0-.2-.1-.5-.1-.7s0-.5.1-.7c0-.2.2-.4.4-.6h0c.2-.3.4-.5.4-.8,0-.3,0-.6-.1-.9-.1-.3-.3-.5-.6-.7-.2-.2-.5-.2-.8-.2h-.2c-.5,0-.9-.2-1.3-.5-.3-.3-.5-.8-.5-1.3s.2-.9.5-1.3c.3-.3.8-.5,1.3-.5h0c.3,0,.6-.1.8-.3.2-.2.4-.4.5-.7.1-.3.2-.6.1-.9,0-.3-.2-.6-.4-.8h0c-.2-.2-.3-.4-.4-.6,0-.2-.1-.5-.1-.7s0-.5.1-.7c0-.2.2-.4.4-.6.2-.2.4-.3.6-.4.2,0,.5-.1.7-.1s.5,0,.7.1c.2,0,.4.2.6.4h0c.2.3.5.4.8.5.3,0,.6,0,.9-.1h0c.3-.1.5-.3.7-.6.2-.2.2-.5.2-.8v-.2c0-.5.2-.9.5-1.3.3-.3.8-.5,1.3-.5s.9.2,1.3.5c.3.3.5.8.5,1.3h0c0,.4,0,.7.2.9.2.2.4.4.7.6.3.1.6.2.9.1s.6-.2.8-.4h0c.2-.2.4-.4.6-.4.2,0,.5-.1.7-.1s.5,0,.7.1c.2,0,.4.2.6.4.2.2.3.4.4.6,0,.2.1.5.1.7s0,.5-.1.7c0,.2-.2.4-.4.6h0c-.2.3-.4.5-.4.8,0,.3,0,.6.1.9h0c.1.3.3.6.6.7.2.2.5.2.8.2h.2c.5,0,.9.2,1.3.5.3.3.5.8.5,1.3s-.2.9-.5,1.3c-.3.3-.8.5-1.3.5h0c-.3,0-.6,0-.8.2-.2.2-.4.4-.6.7Z"/>
</svg>