<?xml version="1.0" encoding="UTF-8"?>
<svg id="Layer_1" data-name="Layer 1" xmlns="http://www.w3.org/2000/svg" version="1.1" viewBox="0 0 72 72">
  <defs>
    <style>
      .cls-1 {
        stroke: #5653ff;
      }

      .cls-1, .cls-2 {
        fill: none;
        stroke-linecap: round;
        stroke-linejoin: round;
        stroke-width: 2px;
      }

      .cls-2 {
        stroke: #8280ff;
      }
    </style>
  </defs>
  <path class="cls-1" d="M31.3,50.6c.8,0,1.4-.6,1.4-1.4s-.6-1.4-1.4-1.4-1.4.6-1.4,1.4.6,1.4,1.4,1.4Z"/>
  <path class="cls-1" d="M46.6,50.6c.8,0,1.4-.6,1.4-1.4s-.6-1.4-1.4-1.4-1.4.6-1.4,1.4.6,1.4,1.4,1.4Z"/>
  <path class="cls-2" d="M20.2,21.4h5.6l3.7,18.6c.1.6.5,1.2,1,1.6.5.4,1.1.6,1.8.6h13.5c.7,0,1.3-.2,1.8-.6s.9-1,1-1.6l2.2-11.7h-23.7"/>
</svg>