<?xml version="1.0" encoding="UTF-8"?>
<svg id="Layer_1" data-name="Layer 1" xmlns="http://www.w3.org/2000/svg" xmlns:xlink="http://www.w3.org/1999/xlink" version="1.1" viewBox="0 0 185 67">
  <defs>
    <style>
      .cls-1 {
        fill: url(#linear-gradient);
      }

      .cls-1, .cls-2, .cls-3, .cls-4, .cls-5, .cls-6, .cls-7, .cls-8, .cls-9 {
        stroke-width: 0px;
      }

      .cls-2 {
        fill: #007db8;
      }

      .cls-3 {
        fill: gray;
      }

      .cls-4 {
        fill: url(#linear-gradient-4);
      }

      .cls-5 {
        fill: url(#linear-gradient-2);
      }

      .cls-6 {
        fill: url(#linear-gradient-3);
      }

      .cls-7 {
        fill: url(#linear-gradient-7);
      }

      .cls-8 {
        fill: url(#linear-gradient-5);
      }

      .cls-9 {
        fill: url(#linear-gradient-6);
      }
    </style>
    <linearGradient id="linear-gradient" x1="11.8" y1="943.7" x2="184.2" y2="989.9" gradientTransform="translate(0 -932)" gradientUnits="userSpaceOnUse">
      <stop offset="0" stop-color="#007db8"/>
      <stop offset="1" stop-color="#2b4d99"/>
    </linearGradient>
    <linearGradient id="linear-gradient-2" x1="10" y1="950.2" x2="182.5" y2="996.3" gradientTransform="translate(0 -932)" gradientUnits="userSpaceOnUse">
      <stop offset="0" stop-color="#007db8"/>
      <stop offset="1" stop-color="#2b4d99"/>
    </linearGradient>
    <linearGradient id="linear-gradient-3" x1="8.6" y1="955.4" x2="181.1" y2="1001.6" gradientTransform="translate(0 -932)" gradientUnits="userSpaceOnUse">
      <stop offset="0" stop-color="#007db8"/>
      <stop offset="1" stop-color="#2b4d99"/>
    </linearGradient>
    <linearGradient id="linear-gradient-4" x1="6.6" y1="963.3" x2="179" y2="1009.5" gradientTransform="translate(0 -932)" gradientUnits="userSpaceOnUse">
      <stop offset="0" stop-color="#007db8"/>
      <stop offset="1" stop-color="#2b4d99"/>
    </linearGradient>
    <linearGradient id="linear-gradient-5" x1="4.8" y1="969.9" x2="177.2" y2="1016.1" gradientTransform="translate(0 -932)" gradientUnits="userSpaceOnUse">
      <stop offset="0" stop-color="#007db8"/>
      <stop offset="1" stop-color="#2b4d99"/>
    </linearGradient>
    <linearGradient id="linear-gradient-6" x1="2.7" y1="977.7" x2="175.2" y2="1023.9" gradientTransform="translate(0 -932)" gradientUnits="userSpaceOnUse">
      <stop offset="0" stop-color="#007db8"/>
      <stop offset="1" stop-color="#2b4d99"/>
    </linearGradient>
    <linearGradient id="linear-gradient-7" x1="1.1" y1="983.6" x2="173.6" y2="1029.8" gradientTransform="translate(0 -932)" gradientUnits="userSpaceOnUse">
      <stop offset="0" stop-color="#007db8"/>
      <stop offset="1" stop-color="#2b4d99"/>
    </linearGradient>
  </defs>
  <path class="cls-3" d="M72.4,2.2v-.7l-.3-.2h-12.8l-.2.2v.7l.2.2h5.4l.2.2v15.5l.2.2h1l.2-.2V2.7l.2-.2h5.5l.3-.3h.1ZM75.2,5.9c-3.4,0-5.4,2.4-5.4,5.9v.5c0,3.4,1.7,6.4,5.6,6.4s4.7-2.2,4.9-3.7l-.2-.2h-1l-.2.2c-.5,1.5-1.5,2.4-3.4,2.4-3.2,0-4.2-3-4.2-4.4l.2-.2h8.9l.2-.2v-.7c0-3.5-1.9-5.9-5.4-5.9h0ZM75.2,7.2c1.5,0,2.5.6,3.1,1.4.6.8.9,1.9.9,2.7l-.2.2h-7.5l-.2-.2c0-.8.2-1.9.9-2.7.6-.8,1.6-1.4,3.1-1.4h-.1ZM83.1,12.3c0-3.4,1.7-5.2,4.2-5.2s3.4,1.5,3.7,3l.2.2h1.1l.2-.2c-.2-2.4-2.2-4.1-5.2-4.1s-5.6,2-5.6,6.4,2.5,6.4,5.6,6.4,4.9-1.7,5.2-4.1l-.2-.2h-1l-.2.2c-.2,1.5-1.3,3-3.7,3s-4.3-1.7-4.3-5.2v-.2ZM104.4,18.2v-7.4c0-3.2-1.7-4.9-4.5-4.9s-3.2.7-4,2h-.2V1.5l-.3-.3h-1l-.2.2v16.8l.2.2h1l.2-.2v-6.7c0-2.8,1.3-4.4,4-4.4s3.2,1.3,3.2,3.7v7.4l.2.2h1l.4-.2h0ZM117,18.2v-7.4c0-3.2-1.7-4.9-4.5-4.9s-3.2.7-4,2h-.2l-.2-1.5-.2-.2h-.7l-.2.2v11.8l.2.2h1l.2-.2v-6.7c0-2.8,1.3-4.4,4-4.4s3.2,1.3,3.2,3.7v7.4l.2.2h1.1l.2-.2h0ZM124.1,6c-3.2,0-5.6,2.2-5.6,6.4s2.5,6.4,5.6,6.4,5.6-2.2,5.6-6.4-2.5-6.4-5.6-6.4ZM124.1,7.2c1.2,0,2.3.5,3,1.4s1.2,2.2,1.2,3.8-.4,2.9-1.2,3.8c-.7.9-1.8,1.4-3,1.4s-2.3-.5-3-1.4-1.2-2.2-1.2-3.8.4-2.9,1.2-3.8c.7-.9,1.8-1.4,3-1.4h0ZM133.1,18.2V1.4l-.3-.2h-1l-.2.2v16.8l.2.2h1s.3-.2.3-.2ZM140.5,6c-3.2,0-5.6,2.2-5.6,6.4s2.5,6.4,5.6,6.4,5.6-2.2,5.6-6.4-2.4-6.4-5.6-6.4ZM140.5,7.2c1.2,0,2.3.5,3,1.4s1.2,2.2,1.2,3.8-.4,2.9-1.2,3.8c-.7.9-1.8,1.4-3,1.4s-2.3-.5-3-1.4-1.2-2.2-1.2-3.8.4-2.9,1.2-3.8c.7-.9,1.8-1.4,3-1.4h0ZM152.6,5.9c-3.4,0-5.2,2.8-5.2,6.4s1.7,6.4,5.2,6.4,3.4-1,4-2h0c0,3.3-.7,5.7-3.7,5.7s-3-1-3.2-2.2l-.2-.2h-1l-.2.2c.2,2,1.7,3.4,4.7,3.4s5.2-2,5.2-6.9V6.4l-.2-.2h-.7l-.2.2-.2,1.5h-.2c-.5-1-1.7-2-4-2h-.1ZM152.6,7.1c1.2,0,2.2.4,2.9,1.3s1.1,2.2,1.1,3.9-.4,3-1.1,3.9c-.7.9-1.7,1.3-2.9,1.3s-2.2-.4-2.9-1.3-1-2.2-1-3.9.4-3,1-3.9c.7-.9,1.7-1.3,2.9-1.3h0ZM162,4v-1.5l-.2-.2h-1l-.3.2v1.5l.2.2h1s.3-.2.3-.2ZM162,18.2V6.4l-.2-.2h-1l-.3.2v11.8l.2.2h1l.3-.2ZM169.1,5.9c-3.4,0-5.4,2.4-5.4,5.9v.5c0,3.4,1.7,6.4,5.6,6.4s4.7-2.2,4.9-3.7l-.2-.2h-1l-.2.2c-.5,1.5-1.5,2.4-3.4,2.4-3.2,0-4.2-3-4.2-4.4l.2-.2h8.9l.2-.2v-.7c0-3.4-2-5.9-5.4-5.9h0ZM169.1,7.1c1.5,0,2.5.6,3.1,1.4s.9,1.9.9,2.7l-.2.2h-7.5l-.2-.2c0-.8.2-1.9.9-2.7.6-.8,1.6-1.4,3.1-1.4h-.1ZM185,15.2c0-2.2-1.3-3.2-3.7-3.7-2.5-.5-4-.7-4-2.4s1-2,2.8-2,3,1,3,2.2l.2.2h1l.2-.2c0-2.4-2-3.4-4.5-3.4s-4.2,1.5-4.2,3.2,1.5,3,4,3.4c2.5.5,3.7.7,3.7,2.8s-.7,2.2-3.2,2.2-3.2-1.3-3.2-2.8l-.2-.2h-1l-.2.2c0,2.2,1.7,3.9,4.7,3.9,3.1.1,4.6-1.4,4.6-3.4h0Z"/>
  <path class="cls-2" d="M59,14.8v3.5h-11.1V1h4v13.8h7.1ZM25.4,0l-9.8,7.5C14.5,3.8,11.3,1,7.2,1H.2v17.3h7.1c4,0,7.6-2.8,8.3-6.5l9.8,7.5,9.8-7.5v6.5h11.1v-3.5h-7.3V1h-4v6.5l-9.3,7.5-2-1.8,4.5-3.5,4.8-3.8-2.8-2.3-9.3,7.3-2-1.8,9.3-7-2.8-2.1h0ZM3.9,4.5h3c.6,0,1.2,0,1.8.4.6.3,1.1.6,1.5,1.1s.8,1,1.1,1.7c.3.6.4,1.3.4,2.1s-.1,1.4-.4,2c-.2.6-.6,1.2-1,1.7s-.9.9-1.5,1.2-1.2.4-1.9.4h-3V4.5h0Z"/>
  <path class="cls-1" d="M175.1,43.6l-8.3,22.5h-2.1l9-23.9h1.5v1.4h0ZM182.6,66.1l-8.3-22.5v-1.4c-.1,0,1.3,0,1.3,0l9,23.9h-2.1.1ZM181.1,57.7v1.7h-12.7v-1.7h12.7Z"/>
  <path class="cls-5" d="M139.5,42.2h7.9c1.8,0,3.3.3,4.5.8s2.2,1.4,2.8,2.4c.7,1.1,1,2.4,1,3.9s-.2,2.1-.7,3c-.4.9-1.1,1.7-1.9,2.3-.8.6-1.8,1.1-3,1.4l-.9.3h-7.4v-2.6h5.6c1.1,0,2.1-.2,2.8-.6.8-.4,1.3-.9,1.7-1.6.4-.7.6-1.4.6-2.2s-.2-1.7-.5-2.4c-.4-.7-.9-1.2-1.7-1.6-.8-.4-1.8-.6-3-.6h-4.7v21.3h-3.2v-23.9h0ZM153.5,66.1l-5.8-10.8h3.3l5.9,10.6v.2h-3.4Z"/>
  <path class="cls-6" d="M121.8,42.2v23.9h-4.1v-23.9s4.1,0,4.1,0ZM129.3,42.2v3.3h-19v-3.3h19Z"/>
  <path class="cls-4" d="M97.1,58.2h4.5c0,1.6-.6,3-1.3,4.3-.8,1.2-1.8,2.2-3.2,2.9-1.4.7-3,1.1-5,1.1s-2.8-.3-4.1-.8c-1.2-.5-2.2-1.3-3.1-2.3-.8-1-1.5-2.2-1.9-3.6-.4-1.4-.7-3-.7-4.7v-1.8c0-1.7.2-3.3.7-4.7s1.1-2.6,2-3.6,1.9-1.8,3.1-2.3,2.6-.8,4.1-.8,3.6.4,4.9,1.1c1.3.7,2.4,1.7,3.1,2.9s1.2,2.7,1.3,4.3h-4.5c0-1-.3-1.9-.7-2.6-.3-.7-.9-1.2-1.5-1.6-.7-.4-1.6-.6-2.7-.6s-1.6.2-2.3.5c-.7.3-1.2.8-1.6,1.5-.4.6-.8,1.5-1,2.4-.2,1-.3,2.1-.3,3.3v1.9c0,1.2,0,2.3.3,3.3s.5,1.8.9,2.4c.4.7,1,1.2,1.6,1.5.7.4,1.4.5,2.3.5s2-.2,2.7-.5c.7-.4,1.2-.9,1.6-1.5.4-.7.6-1.5.7-2.5h0Z"/>
  <path class="cls-8" d="M73.4,62.3v3.8h-12.7v-3.8h12.7ZM62.3,42.2v23.9h-4.9v-23.9s4.9,0,4.9,0ZM71.7,51.9v3.7h-11.1v-3.7h11.1ZM73.4,42.2v3.9h-12.7v-3.9h12.7Z"/>
  <path class="cls-9" d="M38.1,57.8h-6v-4.2h6c.9,0,1.6,0,2.1-.4.5-.3.9-.7,1.2-1.2s.4-1.1.4-1.8,0-1.3-.4-1.9c-.3-.6-.7-1.1-1.2-1.4-.5-.4-1.2-.5-2.1-.5h-4.1v19.7h-5.3v-23.9h9.4c1.9,0,3.5.3,4.9,1s2.4,1.6,3.1,2.8c.7,1.2,1.1,2.6,1.1,4.1s-.4,2.9-1.1,4c-.7,1.1-1.8,2-3.1,2.7-1.4.6-3,.9-4.9.9h0Z"/>
  <path class="cls-7" d="M13.1,59.7c0-.4,0-.7-.2-1-.1-.3-.3-.6-.6-.9-.3-.3-.7-.5-1.3-.8-.5-.3-1.3-.6-2.2-.9-1.1-.3-2.1-.7-3-1.2-1-.4-1.8-1-2.6-1.6-.8-.6-1.4-1.3-1.8-2.1s-.7-1.8-.7-2.8.2-2,.7-2.8,1.1-1.5,1.9-2.1c.8-.6,1.8-1,2.9-1.3s2.3-.5,3.7-.5,3.3.3,4.6.9c1.3.6,2.4,1.5,3.2,2.6.8,1.1,1.1,2.4,1.1,3.9h-5.7c0-.6-.1-1.1-.4-1.6-.2-.5-.6-.8-1.1-1.1s-1.1-.4-1.9-.4-1.3,0-1.8.3-.9.5-1.1.9c-.3.4-.4.8-.4,1.2s0,.7.3,1c.2.3.5.6.9.8.4.3.8.5,1.4.7.5.2,1.2.5,1.8.7,1.3.4,2.4.9,3.4,1.4s1.8,1.1,2.5,1.7c.7.6,1.2,1.3,1.6,2.1s.5,1.7.5,2.7-.2,2-.6,2.9c-.4.8-1,1.5-1.8,2.1-.8.6-1.7,1-2.8,1.3s-2.3.4-3.6.4-2.4-.2-3.6-.5c-1.2-.3-2.3-.8-3.2-1.4-1-.7-1.7-1.5-2.3-2.5C.3,60.8,0,59.6,0,58.1h5.8c0,.7,0,1.3.3,1.8.2.5.5.9.8,1.2.4.3.8.5,1.3.6s1.1.2,1.8.2,1.3,0,1.8-.3c.4-.2.8-.5,1-.9s.3-.8.3-1.2v.2Z"/>
</svg>