<svg width="185" height="67" viewBox="0 0 185 67" fill="none" xmlns="http://www.w3.org/2000/svg">
<path d="M72.3509 2.19139V1.44729L72.03 1.23505H59.2453L59.0322 1.44729V2.19139L59.2453 2.40363H64.6878L64.9009 2.61586V18.1117L65.1139 18.3239H66.0741L66.2872 18.1117V2.71815L66.5002 2.50591H72.0454L72.3663 2.18884L72.3509 2.19139ZM75.2262 5.89913C71.8118 5.89913 69.7837 8.33857 69.7837 11.8315V12.3659C69.7837 15.7668 71.4909 18.733 75.4316 18.733C78.8459 18.733 80.1295 16.5033 80.3349 15.0253L80.1244 14.8156H79.1617L78.9512 15.0253C78.4172 16.5109 77.4545 17.4673 75.5368 17.4673C72.3278 17.4673 71.3779 14.5011 71.3779 13.018L71.5936 12.8083H80.4504L80.6661 12.5935V11.8494C80.6661 8.34624 78.7484 5.91703 75.2236 5.91703L75.2262 5.89913ZM75.2262 7.17255C76.7177 7.17255 77.701 7.78369 78.3068 8.60706C78.9204 9.43043 79.1591 10.4635 79.1591 11.3175L78.9486 11.5323H71.4781L71.2624 11.3175C71.2624 10.4686 71.5019 9.43299 72.1147 8.60706C72.7283 7.78369 73.7167 7.17255 75.221 7.17255H75.2262ZM83.1075 12.2611C83.1075 8.86021 84.8121 7.07027 87.2664 7.07027C89.7181 7.07027 90.6808 8.55592 90.9888 10.0365L91.2019 10.2487H92.2673L92.4804 10.0365C92.2673 7.59446 90.2418 5.89402 87.269 5.89402C84.0599 5.89402 81.6211 7.91154 81.6211 12.2611C81.6211 16.7104 84.0728 18.6282 87.269 18.6282C90.2469 18.6282 92.1723 16.9303 92.4804 14.4857L92.2673 14.2735H91.3072L91.0941 14.4857C90.881 15.9714 89.8156 17.4519 87.3716 17.4519C84.92 17.4519 83.1075 15.754 83.1075 12.2611ZM104.415 18.2191V10.778C104.415 7.58168 102.711 5.89402 99.9484 5.89402C98.2438 5.89402 96.7394 6.63812 95.9949 7.91154H95.7818V1.54446L95.4609 1.22738H94.5008L94.2877 1.43962V18.2139L94.5008 18.4262H95.4609L95.674 18.2139V11.5144C95.674 8.75281 96.9525 7.06515 99.6275 7.06515C101.653 7.06515 102.837 8.33857 102.837 10.7729V18.2139L103.05 18.4262H104.01L104.436 18.2139L104.415 18.2191ZM116.995 18.2191V10.778C116.995 7.58168 115.29 5.89402 112.528 5.89402C110.823 5.89402 109.319 6.63812 108.574 7.91154H108.361L108.148 6.42589L107.935 6.21365H107.188L106.975 6.42589V18.2139L107.188 18.4262H108.148L108.361 18.2139V11.5144C108.361 8.75281 109.64 7.06515 112.315 7.06515C114.34 7.06515 115.524 8.33857 115.524 10.7729V18.2139L115.737 18.4262H116.802L117.015 18.2139L116.995 18.2191ZM124.132 5.9963C120.922 5.9963 118.484 8.22862 118.484 12.3634C118.484 16.5058 120.938 18.7305 124.132 18.7305C127.325 18.7305 129.779 16.5033 129.779 12.3634C129.779 8.22094 127.325 5.9963 124.132 5.9963ZM124.132 7.16488C125.359 7.16488 126.396 7.67118 127.135 8.57382C127.867 9.47646 128.293 10.778 128.293 12.3583C128.293 13.9513 127.867 15.2478 127.135 16.1427C126.403 17.0454 125.364 17.5465 124.132 17.5465C122.904 17.5465 121.867 17.0454 121.128 16.1427C120.396 15.2401 119.97 13.9385 119.97 12.3583C119.97 10.7115 120.396 9.41765 121.128 8.52268C121.86 7.63282 122.899 7.15465 124.132 7.15465V7.16488ZM133.091 18.2114V1.43706L132.77 1.22482H131.81L131.597 1.43706V18.2114L131.81 18.4236H132.77L133.091 18.2114ZM140.459 5.98863C137.25 5.98863 134.811 8.22094 134.811 12.3557C134.811 16.4982 137.265 18.7228 140.459 18.7228C143.653 18.7228 146.107 16.4956 146.107 12.3557C146.107 8.21327 143.658 5.98863 140.459 5.98863ZM140.459 7.15721C141.686 7.15721 142.721 7.6635 143.463 8.56615C144.194 9.46879 144.626 10.7703 144.626 12.3506C144.626 13.9436 144.194 15.2401 143.463 16.1351C142.731 17.0377 141.694 17.5389 140.459 17.5389C139.232 17.5389 138.195 17.0377 137.455 16.1351C136.719 15.2324 136.287 13.9309 136.287 12.3506C136.287 10.7039 136.719 9.40998 137.45 8.51501C138.182 7.62515 139.222 7.14698 140.454 7.14698L140.459 7.15721ZM152.602 5.88379C149.187 5.88379 147.365 8.64542 147.365 12.2509C147.365 15.9586 149.072 18.618 152.602 18.618C154.84 18.618 156.016 17.6616 156.555 16.6004V16.7053C156.555 19.9016 155.811 22.3308 152.833 22.3308C150.594 22.3308 149.855 21.377 149.624 20.1036L149.408 19.8888H148.451L148.235 20.1036C148.448 22.1211 149.945 23.5045 152.933 23.5045C156.142 23.5045 158.17 21.487 158.17 16.6004V6.39776L157.954 6.18808H157.207L156.997 6.39776L156.781 7.88597H156.571C156.037 6.92963 154.864 5.86845 152.617 5.86845L152.602 5.88379ZM152.602 7.05237C153.829 7.05237 154.815 7.47428 155.503 8.33601C156.183 9.19774 156.555 10.4993 156.555 12.2483C156.555 13.9999 156.183 15.2912 155.503 16.1606C154.822 17.0224 153.837 17.4494 152.602 17.4494C151.375 17.4494 150.389 17.0224 149.701 16.1606C149.021 15.2989 148.653 13.9973 148.653 12.2483C148.653 10.5504 149.023 9.25655 149.701 8.36158C150.381 7.48451 151.367 7.03702 152.602 7.03702V7.05237ZM161.972 3.98389V2.49824L161.759 2.286H160.799L160.478 2.49824V3.98389L160.691 4.19613H161.651L161.972 3.98389ZM161.972 18.2012V6.4131L161.759 6.20087H160.799L160.478 6.4131V18.2012L160.691 18.4134H161.651L161.972 18.2012ZM169.109 5.87612C165.695 5.87612 163.667 8.31556 163.667 11.8085V12.3429C163.667 15.7438 165.374 18.71 169.314 18.71C172.729 18.71 174.012 16.4803 174.218 15.0023L174.002 14.7926H173.045L172.829 15.0023C172.295 16.4879 171.337 17.4443 169.414 17.4443C166.205 17.4443 165.256 14.4781 165.256 12.995L165.471 12.7853H174.328L174.544 12.5705V11.8264C174.544 8.42551 172.516 5.89402 169.101 5.89402L169.109 5.87612ZM169.109 7.14954C170.601 7.14954 171.589 7.76067 172.215 8.58405C172.829 9.40742 173.068 10.4405 173.068 11.2945L172.852 11.5093H165.381L165.171 11.2945C165.171 10.4456 165.41 9.40998 166.023 8.58405C166.637 7.76067 167.62 7.14954 169.104 7.14954H169.109ZM185 15.2299C185 13.0001 183.722 12.0335 181.278 11.5221C178.826 10.9902 177.324 10.778 177.324 9.08012C177.324 7.8067 178.284 7.0626 180.097 7.0626C182.335 7.0626 183.075 8.01894 183.075 9.29235L183.288 9.50459H184.248L184.461 9.29235C184.461 6.85036 182.436 5.89146 179.994 5.89146C177.222 5.89146 175.835 7.37711 175.835 9.08779C175.835 11.1053 177.327 12.054 179.789 12.4887C182.241 13.0205 183.511 13.2328 183.511 15.2503C183.511 16.5237 182.764 17.4801 180.302 17.4801C178.064 17.4801 177.093 16.2066 177.093 14.7184L176.88 14.5062H175.92L175.706 14.7184C175.706 16.9482 177.411 18.6563 180.404 18.6563C183.485 18.7637 185 17.2755 185 15.2554L185 15.2299Z" fill="white" style="fill:white;fill-opacity:1;"/>
<path d="M59.0014 14.8054V18.3086H47.9111V0.971684H51.9416V14.7798H59.0014V14.8054ZM25.371 0L15.5386 7.54333C14.5297 3.78445 11.2514 1.02282 7.22083 1.02282H0.161011V18.3597H7.22083C11.2514 18.3597 14.7941 15.5981 15.5386 11.8392L25.371 19.3825L35.2034 11.8392V18.3597H46.2938V14.831H38.9772V1.02282H34.9467V7.54333L25.6277 15.0867L23.6125 13.3274L28.1564 9.79866L32.9571 6.03978L30.1845 3.78189L20.8656 11.0695L18.8503 9.31026L28.1693 2.27834L25.3967 0.0204565H25.3918L25.371 0ZM3.93481 4.526H6.96411C7.59308 4.526 8.21178 4.66664 8.77913 4.9249C9.34648 5.18316 9.86763 5.56161 10.3092 6.03467C10.7507 6.50517 11.1102 7.06772 11.3617 7.70187C11.6138 8.33858 11.752 9.04689 11.752 9.79866C11.752 10.4891 11.6285 11.1616 11.3951 11.7855C11.1625 12.4094 10.8226 12.9822 10.3965 13.468C9.97032 13.9539 9.46201 14.3528 8.88182 14.6315C8.30163 14.9102 7.65469 15.0662 6.96155 15.0662H3.93224V4.53111L3.93481 4.526Z" fill="white" style="fill:white;fill-opacity:1;"/>
<path d="M175.069 43.6291L166.798 66.094H164.698L173.723 42.2014H175.184L175.069 43.6291ZM182.584 66.094L174.297 43.6291L174.183 42.2014H175.643L184.685 66.094H182.584ZM181.107 57.6594V59.3988H168.423V57.6594H181.107Z" fill="white" style="fill:white;fill-opacity:1;"/>
<path d="M139.532 42.2014H147.441C149.235 42.2014 150.751 42.4749 151.987 43.0219C153.234 43.5689 154.18 44.3784 154.826 45.4505C155.482 46.5117 155.81 47.819 155.81 49.3725C155.81 50.4664 155.586 51.4674 155.138 52.3754C154.7 53.2725 154.065 54.0383 153.234 54.6728C152.413 55.2964 151.429 55.7613 150.28 56.0676L149.394 56.4122H141.96L141.928 53.8359H147.54C148.678 53.8359 149.624 53.639 150.379 53.2452C151.134 52.8404 151.702 52.2989 152.085 51.6206C152.468 50.9423 152.66 50.1929 152.66 49.3725C152.66 48.4535 152.479 47.6494 152.118 46.9602C151.757 46.271 151.188 45.7404 150.412 45.3685C149.646 44.9856 148.656 44.7942 147.441 44.7942H142.699V66.094H139.532V42.2014ZM153.497 66.094L147.687 55.2636L150.986 55.2471L156.877 65.897V66.094H153.497Z" fill="white" style="fill:white;fill-opacity:1;"/>
<path d="M121.816 42.2014V66.094H117.73V42.2014H121.816ZM129.315 42.2014V45.4834H110.296V42.2014H129.315Z" fill="white" style="fill:white;fill-opacity:1;"/>
<path d="M97.1094 58.2337H101.622C101.502 59.8309 101.059 61.2476 100.293 62.4838C99.5271 63.7091 98.4605 64.6718 97.093 65.3719C95.7255 66.0721 94.0681 66.4222 92.1209 66.4222C90.6221 66.4222 89.271 66.1596 88.0677 65.6345C86.8752 65.0984 85.8523 64.3381 84.999 63.3535C84.1567 62.358 83.5112 61.1656 83.0627 59.7762C82.6142 58.3759 82.3899 56.8061 82.3899 55.0666V53.2452C82.3899 51.5057 82.6196 49.9359 83.0791 48.5356C83.5386 47.1353 84.195 45.9428 85.0483 44.9582C85.9125 43.9627 86.9463 43.1969 88.1497 42.6609C89.364 42.1248 90.7206 41.8568 92.2193 41.8568C94.1666 41.8568 95.813 42.2178 97.1586 42.9399C98.5042 43.6509 99.549 44.6301 100.293 45.8772C101.037 47.1243 101.485 48.5574 101.638 50.1765H97.1258C97.0383 49.1701 96.8195 48.3168 96.4694 47.6166C96.1303 46.9165 95.6161 46.3859 94.9269 46.0249C94.2486 45.6529 93.3461 45.4669 92.2193 45.4669C91.3441 45.4669 90.5729 45.631 89.9055 45.9592C89.2492 46.2874 88.7022 46.7797 88.2646 47.4361C87.827 48.0816 87.4988 48.8911 87.28 49.8648C87.0612 50.8275 86.9518 51.9433 86.9518 53.2123V55.0666C86.9518 56.281 87.0503 57.3695 87.2472 58.3322C87.4441 59.2949 87.7504 60.1099 88.1661 60.7772C88.5818 61.4445 89.1179 61.9532 89.7743 62.3033C90.4307 62.6534 91.2128 62.8284 92.1209 62.8284C93.2258 62.8284 94.1228 62.6534 94.812 62.3033C95.5122 61.9532 96.0428 61.4391 96.4038 60.7608C96.7757 60.0825 97.0109 59.2402 97.1094 58.2337Z" fill="white" style="fill:white;fill-opacity:1;"/>
<path d="M73.3875 62.2541V66.094H60.67V62.2541H73.3875ZM62.2781 42.2014V66.094H57.3552V42.2014H62.2781ZM71.7301 51.9324V55.6738H60.67V51.9324H71.7301ZM73.3711 42.2014V46.0577H60.67V42.2014H73.3711Z" fill="white" style="fill:white;fill-opacity:1;"/>
<path d="M38.0968 57.7906H32.0908V53.639H38.0968C38.9829 53.639 39.694 53.4913 40.2301 53.1959C40.777 52.9006 41.1763 52.4958 41.428 51.9816C41.6905 51.4565 41.8218 50.8657 41.8218 50.2094C41.8218 49.5311 41.6905 48.9021 41.428 48.3222C41.1763 47.7315 40.777 47.2556 40.2301 46.8946C39.694 46.5336 38.9829 46.3531 38.0968 46.3531H34.0272V66.094H28.6776V42.2014H38.0968C40.0003 42.2014 41.6303 42.546 42.9869 43.2352C44.3544 43.9244 45.3991 44.8707 46.1211 46.0741C46.8541 47.2665 47.2206 48.634 47.2206 50.1765C47.2206 51.7191 46.8541 53.0592 46.1211 54.1969C45.3991 55.3347 44.3544 56.2208 42.9869 56.8553C41.6303 57.4789 40.0003 57.7906 38.0968 57.7906Z" fill="white" style="fill:white;fill-opacity:1;"/>
<path d="M13.0785 59.7434C13.0785 59.3715 13.0238 59.0378 12.9144 58.7424C12.805 58.4361 12.6027 58.1517 12.3073 57.8891C12.0119 57.6266 11.5853 57.364 11.0273 57.1014C10.4803 56.828 9.75831 56.5435 8.86125 56.2481C7.81102 55.8981 6.79909 55.5042 5.82545 55.0666C4.85181 54.6181 3.98209 54.0985 3.2163 53.5077C2.45052 52.906 1.84336 52.2059 1.39483 51.4073C0.946294 50.5977 0.722028 49.6569 0.722028 48.5848C0.722028 47.5565 0.951764 46.632 1.41124 45.8116C1.87071 44.9801 2.51069 44.2745 3.33117 43.6947C4.1626 43.104 5.13624 42.6554 6.2521 42.3491C7.36796 42.0319 8.58775 41.8732 9.91147 41.8732C11.6618 41.8732 13.2044 42.1795 14.539 42.7922C15.8846 43.3939 16.9348 44.2526 17.6897 45.3685C18.4555 46.4734 18.8384 47.7807 18.8384 49.2904H13.1114C13.1114 48.6887 12.9856 48.1582 12.7339 47.6987C12.4933 47.2392 12.1268 46.8782 11.6345 46.6156C11.1422 46.3531 10.5241 46.2218 9.78019 46.2218C9.05816 46.2218 8.451 46.3312 7.95871 46.55C7.46642 46.7688 7.09447 47.0642 6.84285 47.4361C6.59124 47.7971 6.46543 48.1964 6.46543 48.634C6.46543 48.995 6.56389 49.3232 6.7608 49.6186C6.96866 49.9031 7.25856 50.1711 7.63052 50.4227C8.01341 50.6743 8.47288 50.915 9.00893 51.1447C9.55592 51.3745 10.1686 51.5987 10.8468 51.8175C12.1158 52.2223 13.2426 52.6763 14.2272 53.1795C15.2227 53.6718 16.0596 54.2352 16.7379 54.8697C17.4271 55.4933 17.9468 56.2044 18.2968 57.003C18.6578 57.8016 18.8384 58.7041 18.8384 59.7106C18.8384 60.7827 18.6305 61.7345 18.2148 62.5659C17.7991 63.3973 17.2029 64.1029 16.4261 64.6827C15.6494 65.2516 14.7195 65.6837 13.6365 65.9791C12.5534 66.2745 11.3446 66.4222 10.0099 66.4222C8.78467 66.4222 7.57582 66.269 6.38338 65.9627C5.20188 65.6454 4.12978 65.1641 3.16708 64.5186C2.20437 63.8622 1.43312 63.0254 0.853305 62.008C0.284435 60.9796 0 59.7598 0 58.3486H5.77622C5.77622 59.0487 5.86921 59.6395 6.05519 60.1208C6.24116 60.6022 6.51466 60.9905 6.87567 61.2859C7.23668 61.5704 7.67975 61.7782 8.20486 61.9095C8.72997 62.0298 9.33166 62.09 10.0099 62.09C10.7429 62.09 11.3336 61.9861 11.7822 61.7782C12.2307 61.5594 12.5589 61.275 12.7668 60.9249C12.9746 60.5639 13.0785 60.1701 13.0785 59.7434Z" fill="white" style="fill:white;fill-opacity:1;"/>
</svg>
