<?xml version="1.0" encoding="UTF-8"?>
<svg id="Layer_1" xmlns="http://www.w3.org/2000/svg" version="1.1" viewBox="0 0 185 40.1">
  <!-- Generator: Adobe Illustrator 29.2.1, SVG Export Plug-In . SVG Version: 2.1.0 Build 116)  -->
  <defs>
    <style>
      .st0 {
        fill: #fff;
      }
    </style>
  </defs>
  <path class="st0" d="M175.2,9.6l-8.3,22.5h-2.1l9-23.9h1.5v1.4ZM182.7,32l-8.3-22.5v-1.4c-.1,0,1.3,0,1.3,0l9,23.9h-2.1ZM181.3,23.6v1.7h-12.7v-1.7h12.7Z"/>
  <path class="st0" d="M139.7,8.1h7.9c1.8,0,3.3.3,4.5.8,1.2.5,2.2,1.4,2.8,2.4.7,1.1,1,2.4,1,3.9s-.2,2.1-.7,3c-.4.9-1.1,1.7-1.9,2.3-.8.6-1.8,1.1-3,1.4l-.9.3h-7.4v-2.6s5.6,0,5.6,0c1.1,0,2.1-.2,2.8-.6.8-.4,1.3-.9,1.7-1.6.4-.7.6-1.4.6-2.2s-.2-1.7-.5-2.4c-.4-.7-.9-1.2-1.7-1.6-.8-.4-1.8-.6-3-.6h-4.7v21.3h-3.2V8.1ZM153.7,32l-5.8-10.8h3.3s5.9,10.6,5.9,10.6v.2h-3.4Z"/>
  <path class="st0" d="M122,8.1v23.9h-4.1V8.1h4.1ZM129.5,8.1v3.3h-19v-3.3h19Z"/>
  <path class="st0" d="M97.3,24.2h4.5c-.1,1.6-.6,3-1.3,4.3-.8,1.2-1.8,2.2-3.2,2.9-1.4.7-3,1.1-5,1.1s-2.8-.3-4.1-.8c-1.2-.5-2.2-1.3-3.1-2.3-.8-1-1.5-2.2-1.9-3.6-.4-1.4-.7-3-.7-4.7v-1.8c0-1.7.2-3.3.7-4.7.5-1.4,1.1-2.6,2-3.6.9-1,1.9-1.8,3.1-2.3,1.2-.5,2.6-.8,4.1-.8s3.6.4,4.9,1.1c1.3.7,2.4,1.7,3.1,2.9.7,1.2,1.2,2.7,1.3,4.3h-4.5c0-1-.3-1.9-.7-2.6-.3-.7-.9-1.2-1.5-1.6-.7-.4-1.6-.6-2.7-.6s-1.6.2-2.3.5c-.7.3-1.2.8-1.6,1.5-.4.6-.8,1.5-1,2.4-.2,1-.3,2.1-.3,3.3v1.9c0,1.2,0,2.3.3,3.3s.5,1.8.9,2.4c.4.7,1,1.2,1.6,1.5.7.4,1.4.5,2.3.5s2-.2,2.7-.5c.7-.4,1.2-.9,1.6-1.5.4-.7.6-1.5.7-2.5Z"/>
  <path class="st0" d="M73.5,28.2v3.8h-12.7v-3.8h12.7ZM62.4,8.1v23.9h-4.9V8.1h4.9ZM71.9,17.9v3.7h-11.1v-3.7h11.1ZM73.5,8.1v3.9h-12.7v-3.9h12.7Z"/>
  <path class="st0" d="M38.3,23.7h-6v-4.2h6c.9,0,1.6-.1,2.1-.4.5-.3.9-.7,1.2-1.2.3-.5.4-1.1.4-1.8s-.1-1.3-.4-1.9c-.3-.6-.7-1.1-1.2-1.4-.5-.4-1.2-.5-2.1-.5h-4.1v19.7h-5.3V8.1h9.4c1.9,0,3.5.3,4.9,1,1.4.7,2.4,1.6,3.1,2.8.7,1.2,1.1,2.6,1.1,4.1s-.4,2.9-1.1,4c-.7,1.1-1.8,2-3.1,2.7-1.4.6-3,.9-4.9.9Z"/>
  <path class="st0" d="M13.2,25.7c0-.4,0-.7-.2-1-.1-.3-.3-.6-.6-.9-.3-.3-.7-.5-1.3-.8-.5-.3-1.3-.6-2.2-.9-1.1-.3-2.1-.7-3-1.2-1-.4-1.8-1-2.6-1.6-.8-.6-1.4-1.3-1.8-2.1-.4-.8-.7-1.8-.7-2.8s.2-2,.7-2.8c.5-.8,1.1-1.5,1.9-2.1.8-.6,1.8-1,2.9-1.3,1.1-.3,2.3-.5,3.7-.5s3.3.3,4.6.9c1.3.6,2.4,1.5,3.2,2.6.8,1.1,1.1,2.4,1.1,3.9h-5.7c0-.6-.1-1.1-.4-1.6-.2-.5-.6-.8-1.1-1.1-.5-.3-1.1-.4-1.9-.4s-1.3.1-1.8.3-.9.5-1.1.9c-.3.4-.4.8-.4,1.2s0,.7.3,1c.2.3.5.6.9.8.4.3.8.5,1.4.7.5.2,1.2.5,1.8.7,1.3.4,2.4.9,3.4,1.4,1,.5,1.8,1.1,2.5,1.7.7.6,1.2,1.3,1.6,2.1.4.8.5,1.7.5,2.7s-.2,2-.6,2.9c-.4.8-1,1.5-1.8,2.1-.8.6-1.7,1-2.8,1.3-1.1.3-2.3.4-3.6.4s-2.4-.2-3.6-.5c-1.2-.3-2.3-.8-3.2-1.4-1-.7-1.7-1.5-2.3-2.5-.6-1-.9-2.2-.9-3.7h5.8c0,.7,0,1.3.3,1.8.2.5.5.9.8,1.2.4.3.8.5,1.3.6.5.1,1.1.2,1.8.2s1.3-.1,1.8-.3c.4-.2.8-.5,1-.9.2-.4.3-.8.3-1.2Z"/>
</svg>