<svg width="41" height="41" viewBox="0 0 41 41" fill="none" xmlns="http://www.w3.org/2000/svg">
<g filter="url(#filter0_d_137_3290)">
<path d="M31.4505 17.0161V18.2328C31.4488 21.0847 30.5254 23.8597 28.8178 26.1439C27.1102 28.4281 24.7099 30.0991 21.9751 30.9077C19.2402 31.7164 16.3172 31.6192 13.642 30.6309C10.9668 29.6426 8.68277 27.8159 7.13053 25.4234C5.57829 23.031 4.84102 20.2008 5.02867 17.3551C5.21632 14.5093 6.31883 11.8005 8.17178 9.63253C10.0247 7.46458 12.5288 5.95368 15.3106 5.32517C18.0924 4.69666 21.0029 4.98421 23.6079 6.14494" stroke="white" style="stroke:white;stroke-opacity:1;" stroke-width="2" stroke-linecap="round" stroke-linejoin="round"/>
<path d="M31.4506 7.65265L18.2254 20.8911L14.2578 16.9235" stroke="white" style="stroke:white;stroke-opacity:1;" stroke-width="2" stroke-linecap="round" stroke-linejoin="round"/>
</g>
<defs>
<filter id="filter0_d_137_3290" x="0" y="-4.76837e-07" width="40.4506" height="40.4505" filterUnits="userSpaceOnUse" color-interpolation-filters="sRGB">
<feFlood flood-opacity="0" result="BackgroundImageFix"/>
<feColorMatrix in="SourceAlpha" type="matrix" values="0 0 0 0 0 0 0 0 0 0 0 0 0 0 0 0 0 0 127 0" result="hardAlpha"/>
<feOffset dx="2" dy="2"/>
<feGaussianBlur stdDeviation="3"/>
<feComposite in2="hardAlpha" operator="out"/>
<feColorMatrix type="matrix" values="0 0 0 0 0 0 0 0 0 0 0 0 0 0 0 0 0 0 0.25 0"/>
<feBlend mode="normal" in2="BackgroundImageFix" result="effect1_dropShadow_137_3290"/>
<feBlend mode="normal" in="SourceGraphic" in2="effect1_dropShadow_137_3290" result="shape"/>
</filter>
</defs>
</svg>
