<svg width="62" height="66" viewBox="0 0 62 66" fill="none" xmlns="http://www.w3.org/2000/svg">
<g filter="url(#filter0_d_137_3288)">
<path d="M30.2247 21.8318C32.2167 21.8318 33.8316 20.217 33.8316 18.225C33.8316 16.233 32.2167 14.6182 30.2247 14.6182C28.2327 14.6182 26.6179 16.233 26.6179 18.225C26.6179 20.217 28.2327 21.8318 30.2247 21.8318Z" stroke="white" style="stroke:white;stroke-opacity:1;" stroke-width="2" stroke-linecap="round" stroke-linejoin="round"/>
<path d="M39.1218 21.8318C38.9618 22.1944 38.914 22.5967 38.9848 22.9867C39.0555 23.3767 39.2414 23.7366 39.5186 24.02L39.5907 24.0921C39.8143 24.3154 39.9916 24.5806 40.1126 24.8725C40.2336 25.1644 40.2959 25.4773 40.2959 25.7933C40.2959 26.1093 40.2336 26.4222 40.1126 26.7141C39.9916 27.006 39.8143 27.2712 39.5907 27.4945C39.3674 27.7181 39.1022 27.8954 38.8103 28.0165C38.5184 28.1375 38.2055 28.1997 37.8895 28.1997C37.5735 28.1997 37.2606 28.1375 36.9687 28.0165C36.6768 27.8954 36.4116 27.7181 36.1883 27.4945L36.1161 27.4224C35.8328 27.1452 35.4729 26.9593 35.0829 26.8886C34.6929 26.8179 34.2906 26.8656 33.928 27.0256C33.5724 27.178 33.2691 27.4311 33.0555 27.7537C32.8419 28.0762 32.7273 28.4542 32.7257 28.8411V29.0455C32.7257 29.6832 32.4724 30.2948 32.0215 30.7457C31.5705 31.1967 30.9589 31.45 30.3212 31.45C29.6835 31.45 29.0719 31.1967 28.6209 30.7457C28.17 30.2948 27.9166 29.6832 27.9166 29.0455V28.9373C27.9073 28.5393 27.7785 28.1534 27.547 27.8296C27.3154 27.5058 26.9918 27.2592 26.6182 27.1218C26.2556 26.9618 25.8533 26.914 25.4633 26.9848C25.0733 27.0555 24.7134 27.2414 24.43 27.5186L24.3579 27.5907C24.1346 27.8143 23.8694 27.9916 23.5775 28.1126C23.2856 28.2336 22.9727 28.2959 22.6567 28.2959C22.3407 28.2959 22.0278 28.2336 21.7359 28.1126C21.444 27.9916 21.1788 27.8143 20.9555 27.5907C20.7319 27.3674 20.5546 27.1022 20.4335 26.8103C20.3125 26.5184 20.2503 26.2055 20.2503 25.8895C20.2503 25.5735 20.3125 25.2606 20.4335 24.9687C20.5546 24.6768 20.7319 24.4116 20.9555 24.1883L21.0276 24.1161C21.3048 23.8328 21.4907 23.4729 21.5614 23.0829C21.6321 22.6929 21.5844 22.2906 21.4244 21.928C21.272 21.5724 21.0189 21.2691 20.6963 21.0555C20.3738 20.8419 19.9958 20.7273 19.6089 20.7257H19.4045C18.7668 20.7257 18.1552 20.4724 17.7043 20.0215C17.2533 19.5705 17 18.9589 17 18.3212C17 17.6835 17.2533 17.0719 17.7043 16.6209C18.1552 16.17 18.7668 15.9166 19.4045 15.9166H19.5127C19.9107 15.9073 20.2966 15.7785 20.6204 15.547C20.9442 15.3154 21.1908 14.9918 21.3282 14.6182C21.4882 14.2556 21.536 13.8533 21.4652 13.4633C21.3945 13.0733 21.2086 12.7134 20.9314 12.43L20.8593 12.3579C20.6357 12.1346 20.4584 11.8694 20.3374 11.5775C20.2164 11.2856 20.1541 10.9727 20.1541 10.6567C20.1541 10.3407 20.2164 10.0278 20.3374 9.7359C20.4584 9.44399 20.6357 9.17879 20.8593 8.95548C21.0826 8.73191 21.3478 8.55455 21.6397 8.43355C21.9316 8.31254 22.2445 8.25026 22.5605 8.25026C22.8765 8.25026 23.1894 8.31254 23.4813 8.43355C23.7732 8.55455 24.0384 8.73191 24.2617 8.95548L24.3339 9.02761C24.6172 9.30478 24.9771 9.49071 25.3671 9.56143C25.7571 9.63214 26.1594 9.5844 26.522 9.42436H26.6182C26.9738 9.27196 27.277 9.0189 27.4907 8.69635C27.7043 8.37379 27.8189 7.99581 27.8205 7.60893V7.40455C27.8205 6.76682 28.0738 6.15521 28.5247 5.70428C28.9757 5.25334 29.5873 5 30.225 5C30.8627 5 31.4743 5.25334 31.9253 5.70428C32.3762 6.15521 32.6295 6.76682 32.6295 7.40455V7.51275C32.6311 7.89963 32.7457 8.27761 32.9593 8.60016C33.173 8.92272 33.4762 9.17578 33.8318 9.32818C34.1944 9.48822 34.5967 9.53596 34.9867 9.46525C35.3767 9.39453 35.7366 9.2086 36.02 8.93143L36.0921 8.8593C36.3154 8.63573 36.5806 8.45837 36.8725 8.33737C37.1644 8.21636 37.4773 8.15407 37.7933 8.15407C38.1093 8.15407 38.4222 8.21636 38.7141 8.33737C39.006 8.45837 39.2712 8.63573 39.4945 8.8593C39.7181 9.08261 39.8954 9.34781 40.0165 9.63971C40.1375 9.93162 40.1997 10.2445 40.1997 10.5605C40.1997 10.8765 40.1375 11.1894 40.0165 11.4813C39.8954 11.7732 39.7181 12.0384 39.4945 12.2617L39.4224 12.3339C39.1452 12.6172 38.9593 12.9771 38.8886 13.3671C38.8179 13.7571 38.8656 14.1594 39.0256 14.522V14.6182C39.178 14.9738 39.4311 15.277 39.7537 15.4907C40.0762 15.7043 40.4542 15.8189 40.8411 15.8205H41.0455C41.6832 15.8205 42.2948 16.0738 42.7457 16.5247C43.1967 16.9757 43.45 17.5873 43.45 18.225C43.45 18.8627 43.1967 19.4743 42.7457 19.9253C42.2948 20.3762 41.6832 20.6295 41.0455 20.6295H40.9373C40.5504 20.6311 40.1724 20.7457 39.8498 20.9593C39.5273 21.173 39.2742 21.4762 39.1218 21.8318Z" stroke="white" style="stroke:white;stroke-opacity:1;" stroke-width="2" stroke-linecap="round" stroke-linejoin="round"/>
</g>
<defs>
<filter id="filter0_d_137_3288" x="12" y="0" width="40.45" height="40.45" filterUnits="userSpaceOnUse" color-interpolation-filters="sRGB">
<feFlood flood-opacity="0" result="BackgroundImageFix"/>
<feColorMatrix in="SourceAlpha" type="matrix" values="0 0 0 0 0 0 0 0 0 0 0 0 0 0 0 0 0 0 127 0" result="hardAlpha"/>
<feOffset dx="2" dy="2"/>
<feGaussianBlur stdDeviation="3"/>
<feComposite in2="hardAlpha" operator="out"/>
<feColorMatrix type="matrix" values="0 0 0 0 0 0 0 0 0 0 0 0 0 0 0 0 0 0 0.25 0"/>
<feBlend mode="normal" in2="BackgroundImageFix" result="effect1_dropShadow_137_3288"/>
<feBlend mode="normal" in="SourceGraphic" in2="effect1_dropShadow_137_3288" result="shape"/>
</filter>
</defs>
</svg>
