<svg width="147" height="61" viewBox="0 0 147 61" fill="none" xmlns="http://www.w3.org/2000/svg">
<path d="M29.5425 34.5078C29.5425 34.0928 29.4774 33.7266 29.3472 33.4092C29.2251 33.0837 29.0054 32.7907 28.688 32.5303C28.3787 32.2699 27.9474 32.0216 27.394 31.7856C26.8488 31.5496 26.1571 31.3096 25.3188 31.0654C24.4399 30.805 23.6465 30.5161 22.9385 30.1987C22.2305 29.8732 21.6242 29.5029 21.1196 29.0879C20.6151 28.6729 20.2285 28.1968 19.96 27.6597C19.6914 27.1226 19.5571 26.5081 19.5571 25.8164C19.5571 25.1247 19.6995 24.4858 19.9844 23.8999C20.2692 23.314 20.6761 22.8053 21.2051 22.374C21.7422 21.9346 22.381 21.5928 23.1216 21.3486C23.8621 21.1045 24.6882 20.9824 25.5996 20.9824C26.9342 20.9824 28.0654 21.2388 28.9932 21.7515C29.929 22.256 30.6411 22.9193 31.1294 23.7412C31.6177 24.555 31.8618 25.4258 31.8618 26.3535H29.5181C29.5181 25.6862 29.3757 25.0962 29.0908 24.5835C28.806 24.0627 28.3747 23.6558 27.7969 23.3628C27.2191 23.0617 26.4867 22.9111 25.5996 22.9111C24.7614 22.9111 24.0697 23.0373 23.5244 23.2896C22.9792 23.5418 22.5723 23.8836 22.3037 24.3149C22.0433 24.7463 21.9131 25.2386 21.9131 25.792C21.9131 26.1663 21.9904 26.5081 22.145 26.8174C22.3078 27.1185 22.556 27.3993 22.8896 27.6597C23.2314 27.9201 23.6628 28.1602 24.1836 28.3799C24.7126 28.5996 25.3433 28.8112 26.0757 29.0146C27.0848 29.2995 27.9556 29.6169 28.688 29.9668C29.4204 30.3167 30.0226 30.7114 30.4946 31.1509C30.9748 31.5822 31.3288 32.0745 31.5566 32.6279C31.7926 33.1732 31.9106 33.7917 31.9106 34.4834C31.9106 35.2077 31.7642 35.8628 31.4712 36.4487C31.1782 37.0347 30.7591 37.5352 30.2139 37.9502C29.6686 38.3652 29.0135 38.6867 28.2485 38.9146C27.4917 39.1343 26.6453 39.2441 25.7095 39.2441C24.8875 39.2441 24.0778 39.1302 23.2803 38.9023C22.4909 38.6745 21.7707 38.3327 21.1196 37.877C20.4767 37.4212 19.96 36.8597 19.5693 36.1924C19.1868 35.5169 18.9956 34.7357 18.9956 33.8486H21.3394C21.3394 34.459 21.4574 34.9839 21.6934 35.4233C21.9294 35.8547 22.2508 36.2127 22.6577 36.4976C23.0728 36.7824 23.5407 36.994 24.0615 37.1323C24.5905 37.2625 25.1398 37.3276 25.7095 37.3276C26.5314 37.3276 27.2272 37.2137 27.7969 36.9858C28.3665 36.758 28.7979 36.4325 29.0908 36.0093C29.3919 35.5861 29.5425 35.0856 29.5425 34.5078ZM40.1016 25.792V27.5254H32.9604V25.792H40.1016ZM35.3774 22.5815H37.6357V35.7285C37.6357 36.1761 37.7049 36.5138 37.8433 36.7417C37.9816 36.9696 38.1606 37.1201 38.3804 37.1934C38.6001 37.2666 38.8361 37.3032 39.0884 37.3032C39.2756 37.3032 39.4709 37.2869 39.6743 37.2544C39.8859 37.2137 40.0446 37.1812 40.1504 37.1567L40.1626 39C39.9836 39.057 39.7476 39.1099 39.4546 39.1587C39.1698 39.2157 38.8239 39.2441 38.417 39.2441C37.8636 39.2441 37.355 39.1343 36.8911 38.9146C36.4272 38.6948 36.057 38.3286 35.7803 37.8159C35.5117 37.2951 35.3774 36.5952 35.3774 35.7163V22.5815ZM50.5386 36.7417V29.9424C50.5386 29.4215 50.4328 28.9699 50.2212 28.5874C50.0177 28.1968 49.7085 27.8957 49.2935 27.6841C48.8784 27.4725 48.3657 27.3667 47.7554 27.3667C47.1857 27.3667 46.6852 27.4644 46.2539 27.6597C45.8307 27.855 45.4971 28.1113 45.2529 28.4287C45.0169 28.7461 44.8989 29.0879 44.8989 29.4541H42.6406C42.6406 28.9821 42.7627 28.5142 43.0068 28.0503C43.251 27.5864 43.6009 27.1673 44.0566 26.793C44.5205 26.4105 45.0739 26.1094 45.7168 25.8896C46.3678 25.6618 47.0921 25.5479 47.8896 25.5479C48.8499 25.5479 49.6963 25.7106 50.4287 26.0361C51.1693 26.3617 51.7471 26.854 52.1621 27.5132C52.5853 28.1642 52.7969 28.9821 52.7969 29.9668V36.1191C52.7969 36.5586 52.8335 37.0265 52.9067 37.5229C52.9881 38.0194 53.1061 38.4466 53.2607 38.8047V39H50.9048C50.7909 38.7396 50.7013 38.3937 50.6362 37.9624C50.5711 37.5229 50.5386 37.116 50.5386 36.7417ZM50.9292 30.9922L50.9536 32.5791H48.6709C48.028 32.5791 47.4543 32.632 46.9497 32.7378C46.4451 32.8354 46.022 32.986 45.6802 33.1895C45.3384 33.3929 45.078 33.6493 44.8989 33.9585C44.7199 34.2596 44.6304 34.6136 44.6304 35.0205C44.6304 35.4355 44.724 35.814 44.9111 36.1558C45.0983 36.4976 45.3791 36.7702 45.7534 36.9736C46.1359 37.1689 46.6038 37.2666 47.1572 37.2666C47.849 37.2666 48.4593 37.1201 48.9883 36.8271C49.5173 36.5342 49.9364 36.1761 50.2456 35.7529C50.563 35.3298 50.7339 34.9188 50.7583 34.52L51.7227 35.6064C51.6657 35.9482 51.5111 36.3267 51.2588 36.7417C51.0065 37.1567 50.6688 37.5555 50.2456 37.938C49.8306 38.3123 49.3341 38.6257 48.7563 38.8779C48.1867 39.1221 47.5438 39.2441 46.8276 39.2441C45.9325 39.2441 45.1471 39.0692 44.4717 38.7192C43.8044 38.3693 43.2835 37.9014 42.9092 37.3154C42.543 36.7214 42.3599 36.0581 42.3599 35.3257C42.3599 34.6177 42.4982 33.9951 42.7749 33.458C43.0516 32.9128 43.4504 32.4611 43.9712 32.103C44.492 31.7368 45.1187 31.4601 45.8511 31.2729C46.5835 31.0858 47.4014 30.9922 48.3047 30.9922H50.9292ZM58.6074 27.8672V39H56.3491V25.792H58.5464L58.6074 27.8672ZM62.7334 25.7188L62.7212 27.8184C62.534 27.7777 62.355 27.7533 62.1841 27.7451C62.0213 27.7288 61.8341 27.7207 61.6226 27.7207C61.1017 27.7207 60.6419 27.8021 60.2432 27.9648C59.8444 28.1276 59.5067 28.3555 59.23 28.6484C58.9533 28.9414 58.7336 29.2913 58.5708 29.6982C58.4162 30.097 58.3145 30.5365 58.2656 31.0166L57.6309 31.3828C57.6309 30.5853 57.7082 29.8366 57.8628 29.1367C58.0256 28.4368 58.2738 27.8184 58.6074 27.2812C58.9411 26.736 59.3643 26.3128 59.877 26.0117C60.3978 25.7025 61.0163 25.5479 61.7324 25.5479C61.8952 25.5479 62.0824 25.5682 62.2939 25.6089C62.5055 25.6414 62.652 25.6781 62.7334 25.7188ZM70.9609 25.792V27.5254H63.8198V25.792H70.9609ZM66.2368 22.5815H68.4951V35.7285C68.4951 36.1761 68.5643 36.5138 68.7026 36.7417C68.841 36.9696 69.02 37.1201 69.2397 37.1934C69.4595 37.2666 69.6955 37.3032 69.9478 37.3032C70.1349 37.3032 70.3302 37.2869 70.5337 37.2544C70.7453 37.2137 70.904 37.1812 71.0098 37.1567L71.022 39C70.8429 39.057 70.6069 39.1099 70.314 39.1587C70.0291 39.2157 69.6833 39.2441 69.2764 39.2441C68.723 39.2441 68.2144 39.1343 67.7505 38.9146C67.2866 38.6948 66.9163 38.3286 66.6396 37.8159C66.3711 37.2951 66.2368 36.5952 66.2368 35.7163V22.5815ZM93.8247 21.2266V39H91.4565L82.5088 25.2915V39H80.1528V21.2266H82.5088L91.4932 34.9717V21.2266H93.8247ZM97.0596 32.5425V32.2617C97.0596 31.3096 97.1979 30.4266 97.4746 29.6128C97.7513 28.7909 98.1501 28.0788 98.6709 27.4766C99.1917 26.8662 99.8224 26.3942 100.563 26.0605C101.304 25.7188 102.134 25.5479 103.053 25.5479C103.981 25.5479 104.815 25.7188 105.556 26.0605C106.304 26.3942 106.939 26.8662 107.46 27.4766C107.989 28.0788 108.392 28.7909 108.668 29.6128C108.945 30.4266 109.083 31.3096 109.083 32.2617V32.5425C109.083 33.4946 108.945 34.3776 108.668 35.1914C108.392 36.0052 107.989 36.7173 107.46 37.3276C106.939 37.9299 106.308 38.4019 105.568 38.7437C104.835 39.0773 104.005 39.2441 103.078 39.2441C102.15 39.2441 101.316 39.0773 100.575 38.7437C99.8346 38.4019 99.1999 37.9299 98.6709 37.3276C98.1501 36.7173 97.7513 36.0052 97.4746 35.1914C97.1979 34.3776 97.0596 33.4946 97.0596 32.5425ZM99.3179 32.2617V32.5425C99.3179 33.2017 99.3952 33.8242 99.5498 34.4102C99.7044 34.988 99.9364 35.5007 100.246 35.9482C100.563 36.3958 100.958 36.7498 101.43 37.0103C101.902 37.2625 102.451 37.3887 103.078 37.3887C103.696 37.3887 104.237 37.2625 104.701 37.0103C105.173 36.7498 105.564 36.3958 105.873 35.9482C106.182 35.5007 106.414 34.988 106.569 34.4102C106.732 33.8242 106.813 33.2017 106.813 32.5425V32.2617C106.813 31.6107 106.732 30.9963 106.569 30.4185C106.414 29.8325 106.178 29.3158 105.861 28.8682C105.552 28.4124 105.161 28.0544 104.689 27.7939C104.225 27.5335 103.68 27.4033 103.053 27.4033C102.435 27.4033 101.889 27.5335 101.417 27.7939C100.954 28.0544 100.563 28.4124 100.246 28.8682C99.9364 29.3158 99.7044 29.8325 99.5498 30.4185C99.3952 30.9963 99.3179 31.6107 99.3179 32.2617ZM115.26 36.6562L118.654 25.792H120.143L119.85 27.9526L116.396 39H114.943L115.26 36.6562ZM112.978 25.792L115.871 36.7783L116.078 39H114.552L110.719 25.792H112.978ZM123.39 36.6929L126.149 25.792H128.395L124.562 39H123.048L123.39 36.6929ZM120.473 25.792L123.793 36.4731L124.171 39H122.731L119.179 27.9282L118.886 25.792H120.473Z" fill="#0672CB" style="fill:#0672CB;fill:color(display-p3 0.0235 0.4471 0.7961);fill-opacity:1;"/>
</svg>
