<svg width="222" height="84" viewBox="0 0 222 84" fill="none" xmlns="http://www.w3.org/2000/svg">
<g filter="url(#filter0_d_137_1314)">
<g filter="url(#filter1_d_137_1314)">
<rect x="4" y="4" width="210" height="72" rx="5" fill="white" style="fill:white;fill-opacity:1;"/>
</g>
<path d="M80.5425 44.5078C80.5425 44.0928 80.4774 43.7266 80.3472 43.4092C80.2251 43.0837 80.0054 42.7907 79.688 42.5303C79.3787 42.2699 78.9474 42.0216 78.394 41.7856C77.8488 41.5496 77.1571 41.3096 76.3188 41.0654C75.4399 40.805 74.6465 40.5161 73.9385 40.1987C73.2305 39.8732 72.6242 39.5029 72.1196 39.0879C71.6151 38.6729 71.2285 38.1968 70.96 37.6597C70.6914 37.1226 70.5571 36.5081 70.5571 35.8164C70.5571 35.1247 70.6995 34.4858 70.9844 33.8999C71.2692 33.314 71.6761 32.8053 72.2051 32.374C72.7422 31.9346 73.381 31.5928 74.1216 31.3486C74.8621 31.1045 75.6882 30.9824 76.5996 30.9824C77.9342 30.9824 79.0654 31.2388 79.9932 31.7515C80.929 32.256 81.6411 32.9193 82.1294 33.7412C82.6177 34.555 82.8618 35.4258 82.8618 36.3535H80.5181C80.5181 35.6862 80.3757 35.0962 80.0908 34.5835C79.806 34.0627 79.3747 33.6558 78.7969 33.3628C78.2191 33.0617 77.4867 32.9111 76.5996 32.9111C75.7614 32.9111 75.0697 33.0373 74.5244 33.2896C73.9792 33.5418 73.5723 33.8836 73.3037 34.3149C73.0433 34.7463 72.9131 35.2386 72.9131 35.792C72.9131 36.1663 72.9904 36.5081 73.145 36.8174C73.3078 37.1185 73.556 37.3993 73.8896 37.6597C74.2314 37.9201 74.6628 38.1602 75.1836 38.3799C75.7126 38.5996 76.3433 38.8112 77.0757 39.0146C78.0848 39.2995 78.9556 39.6169 79.688 39.9668C80.4204 40.3167 81.0226 40.7114 81.4946 41.1509C81.9748 41.5822 82.3288 42.0745 82.5566 42.6279C82.7926 43.1732 82.9106 43.7917 82.9106 44.4834C82.9106 45.2077 82.7642 45.8628 82.4712 46.4487C82.1782 47.0347 81.7591 47.5352 81.2139 47.9502C80.6686 48.3652 80.0135 48.6867 79.2485 48.9146C78.4917 49.1343 77.6453 49.2441 76.7095 49.2441C75.8875 49.2441 75.0778 49.1302 74.2803 48.9023C73.4909 48.6745 72.7707 48.3327 72.1196 47.877C71.4767 47.4212 70.96 46.8597 70.5693 46.1924C70.1868 45.5169 69.9956 44.7357 69.9956 43.8486H72.3394C72.3394 44.459 72.4574 44.9839 72.6934 45.4233C72.9294 45.8547 73.2508 46.2127 73.6577 46.4976C74.0728 46.7824 74.5407 46.994 75.0615 47.1323C75.5905 47.2625 76.1398 47.3276 76.7095 47.3276C77.5314 47.3276 78.2272 47.2137 78.7969 46.9858C79.3665 46.758 79.7979 46.4325 80.0908 46.0093C80.3919 45.5861 80.5425 45.0856 80.5425 44.5078ZM91.1016 35.792V37.5254H83.9604V35.792H91.1016ZM86.3774 32.5815H88.6357V45.7285C88.6357 46.1761 88.7049 46.5138 88.8433 46.7417C88.9816 46.9696 89.1606 47.1201 89.3804 47.1934C89.6001 47.2666 89.8361 47.3032 90.0884 47.3032C90.2756 47.3032 90.4709 47.2869 90.6743 47.2544C90.8859 47.2137 91.0446 47.1812 91.1504 47.1567L91.1626 49C90.9836 49.057 90.7476 49.1099 90.4546 49.1587C90.1698 49.2157 89.8239 49.2441 89.417 49.2441C88.8636 49.2441 88.355 49.1343 87.8911 48.9146C87.4272 48.6948 87.057 48.3286 86.7803 47.8159C86.5117 47.2951 86.3774 46.5952 86.3774 45.7163V32.5815ZM101.539 46.7417V39.9424C101.539 39.4215 101.433 38.9699 101.221 38.5874C101.018 38.1968 100.708 37.8957 100.293 37.6841C99.8784 37.4725 99.3657 37.3667 98.7554 37.3667C98.1857 37.3667 97.6852 37.4644 97.2539 37.6597C96.8307 37.855 96.4971 38.1113 96.2529 38.4287C96.0169 38.7461 95.8989 39.0879 95.8989 39.4541H93.6406C93.6406 38.9821 93.7627 38.5142 94.0068 38.0503C94.251 37.5864 94.6009 37.1673 95.0566 36.793C95.5205 36.4105 96.0739 36.1094 96.7168 35.8896C97.3678 35.6618 98.0921 35.5479 98.8896 35.5479C99.8499 35.5479 100.696 35.7106 101.429 36.0361C102.169 36.3617 102.747 36.854 103.162 37.5132C103.585 38.1642 103.797 38.9821 103.797 39.9668V46.1191C103.797 46.5586 103.833 47.0265 103.907 47.5229C103.988 48.0194 104.106 48.4466 104.261 48.8047V49H101.905C101.791 48.7396 101.701 48.3937 101.636 47.9624C101.571 47.5229 101.539 47.116 101.539 46.7417ZM101.929 40.9922L101.954 42.5791H99.6709C99.028 42.5791 98.4543 42.632 97.9497 42.7378C97.4451 42.8354 97.022 42.986 96.6802 43.1895C96.3384 43.3929 96.078 43.6493 95.8989 43.9585C95.7199 44.2596 95.6304 44.6136 95.6304 45.0205C95.6304 45.4355 95.724 45.814 95.9111 46.1558C96.0983 46.4976 96.3791 46.7702 96.7534 46.9736C97.1359 47.1689 97.6038 47.2666 98.1572 47.2666C98.849 47.2666 99.4593 47.1201 99.9883 46.8271C100.517 46.5342 100.936 46.1761 101.246 45.7529C101.563 45.3298 101.734 44.9188 101.758 44.52L102.723 45.6064C102.666 45.9482 102.511 46.3267 102.259 46.7417C102.007 47.1567 101.669 47.5555 101.246 47.938C100.831 48.3123 100.334 48.6257 99.7563 48.8779C99.1867 49.1221 98.5438 49.2441 97.8276 49.2441C96.9325 49.2441 96.1471 49.0692 95.4717 48.7192C94.8044 48.3693 94.2835 47.9014 93.9092 47.3154C93.543 46.7214 93.3599 46.0581 93.3599 45.3257C93.3599 44.6177 93.4982 43.9951 93.7749 43.458C94.0516 42.9128 94.4504 42.4611 94.9712 42.103C95.492 41.7368 96.1187 41.4601 96.8511 41.2729C97.5835 41.0858 98.4014 40.9922 99.3047 40.9922H101.929ZM109.607 37.8672V49H107.349V35.792H109.546L109.607 37.8672ZM113.733 35.7188L113.721 37.8184C113.534 37.7777 113.355 37.7533 113.184 37.7451C113.021 37.7288 112.834 37.7207 112.623 37.7207C112.102 37.7207 111.642 37.8021 111.243 37.9648C110.844 38.1276 110.507 38.3555 110.23 38.6484C109.953 38.9414 109.734 39.2913 109.571 39.6982C109.416 40.097 109.314 40.5365 109.266 41.0166L108.631 41.3828C108.631 40.5853 108.708 39.8366 108.863 39.1367C109.026 38.4368 109.274 37.8184 109.607 37.2812C109.941 36.736 110.364 36.3128 110.877 36.0117C111.398 35.7025 112.016 35.5479 112.732 35.5479C112.895 35.5479 113.082 35.5682 113.294 35.6089C113.506 35.6414 113.652 35.6781 113.733 35.7188ZM121.961 35.792V37.5254H114.82V35.792H121.961ZM117.237 32.5815H119.495V45.7285C119.495 46.1761 119.564 46.5138 119.703 46.7417C119.841 46.9696 120.02 47.1201 120.24 47.1934C120.459 47.2666 120.695 47.3032 120.948 47.3032C121.135 47.3032 121.33 47.2869 121.534 47.2544C121.745 47.2137 121.904 47.1812 122.01 47.1567L122.022 49C121.843 49.057 121.607 49.1099 121.314 49.1587C121.029 49.2157 120.683 49.2441 120.276 49.2441C119.723 49.2441 119.214 49.1343 118.75 48.9146C118.287 48.6948 117.916 48.3286 117.64 47.8159C117.371 47.2951 117.237 46.5952 117.237 45.7163V32.5815ZM144.825 31.2266V49H142.457L133.509 35.2915V49H131.153V31.2266H133.509L142.493 44.9717V31.2266H144.825ZM148.06 42.5425V42.2617C148.06 41.3096 148.198 40.4266 148.475 39.6128C148.751 38.7909 149.15 38.0788 149.671 37.4766C150.192 36.8662 150.822 36.3942 151.563 36.0605C152.304 35.7188 153.134 35.5479 154.053 35.5479C154.981 35.5479 155.815 35.7188 156.556 36.0605C157.304 36.3942 157.939 36.8662 158.46 37.4766C158.989 38.0788 159.392 38.7909 159.668 39.6128C159.945 40.4266 160.083 41.3096 160.083 42.2617V42.5425C160.083 43.4946 159.945 44.3776 159.668 45.1914C159.392 46.0052 158.989 46.7173 158.46 47.3276C157.939 47.9299 157.308 48.4019 156.568 48.7437C155.835 49.0773 155.005 49.2441 154.078 49.2441C153.15 49.2441 152.316 49.0773 151.575 48.7437C150.835 48.4019 150.2 47.9299 149.671 47.3276C149.15 46.7173 148.751 46.0052 148.475 45.1914C148.198 44.3776 148.06 43.4946 148.06 42.5425ZM150.318 42.2617V42.5425C150.318 43.2017 150.395 43.8242 150.55 44.4102C150.704 44.988 150.936 45.5007 151.246 45.9482C151.563 46.3958 151.958 46.7498 152.43 47.0103C152.902 47.2625 153.451 47.3887 154.078 47.3887C154.696 47.3887 155.237 47.2625 155.701 47.0103C156.173 46.7498 156.564 46.3958 156.873 45.9482C157.182 45.5007 157.414 44.988 157.569 44.4102C157.732 43.8242 157.813 43.2017 157.813 42.5425V42.2617C157.813 41.6107 157.732 40.9963 157.569 40.4185C157.414 39.8325 157.178 39.3158 156.861 38.8682C156.552 38.4124 156.161 38.0544 155.689 37.7939C155.225 37.5335 154.68 37.4033 154.053 37.4033C153.435 37.4033 152.889 37.5335 152.417 37.7939C151.954 38.0544 151.563 38.4124 151.246 38.8682C150.936 39.3158 150.704 39.8325 150.55 40.4185C150.395 40.9963 150.318 41.6107 150.318 42.2617ZM166.26 46.6562L169.654 35.792H171.143L170.85 37.9526L167.396 49H165.943L166.26 46.6562ZM163.978 35.792L166.871 46.7783L167.078 49H165.552L161.719 35.792H163.978ZM174.39 46.6929L177.149 35.792H179.395L175.562 49H174.048L174.39 46.6929ZM171.473 35.792L174.793 46.4731L175.171 49H173.731L170.179 37.9282L169.886 35.792H171.473Z" fill="#0672CB" style="fill:#0672CB;fill:color(display-p3 0.0235 0.4471 0.7961);fill-opacity:1;"/>
<g filter="url(#filter2_d_137_1314)">
<path d="M39.375 27.875H44.5417C45.2268 27.875 45.8839 28.1472 46.3684 28.6316C46.8528 29.1161 47.125 29.7732 47.125 30.4583V48.5417C47.125 49.2268 46.8528 49.8839 46.3684 50.3684C45.8839 50.8528 45.2268 51.125 44.5417 51.125H39.375" stroke="#0672CB" style="stroke:#0672CB;stroke:color(display-p3 0.0235 0.4471 0.7961);stroke-opacity:1;" stroke-width="2" stroke-linecap="round" stroke-linejoin="round"/>
<path d="M32.9167 45.9583L39.3751 39.5L32.9167 33.0417" stroke="#0672CB" style="stroke:#0672CB;stroke:color(display-p3 0.0235 0.4471 0.7961);stroke-opacity:1;" stroke-width="2" stroke-linecap="round" stroke-linejoin="round"/>
<path d="M39.375 39.5H23.875" stroke="#0672CB" style="stroke:#0672CB;stroke:color(display-p3 0.0235 0.4471 0.7961);stroke-opacity:1;" stroke-width="2" stroke-linecap="round" stroke-linejoin="round"/>
</g>
</g>
<defs>
<filter id="filter0_d_137_1314" x="0" y="0" width="222" height="84" filterUnits="userSpaceOnUse" color-interpolation-filters="sRGB">
<feFlood flood-opacity="0" result="BackgroundImageFix"/>
<feColorMatrix in="SourceAlpha" type="matrix" values="0 0 0 0 0 0 0 0 0 0 0 0 0 0 0 0 0 0 127 0" result="hardAlpha"/>
<feOffset dx="2" dy="2"/>
<feGaussianBlur stdDeviation="3"/>
<feComposite in2="hardAlpha" operator="out"/>
<feColorMatrix type="matrix" values="0 0 0 0 0 0 0 0 0 0 0 0 0 0 0 0 0 0 0.25 0"/>
<feBlend mode="normal" in2="BackgroundImageFix" result="effect1_dropShadow_137_1314"/>
<feBlend mode="normal" in="SourceGraphic" in2="effect1_dropShadow_137_1314" result="shape"/>
</filter>
<filter id="filter1_d_137_1314" x="0" y="0" width="222" height="84" filterUnits="userSpaceOnUse" color-interpolation-filters="sRGB">
<feFlood flood-opacity="0" result="BackgroundImageFix"/>
<feColorMatrix in="SourceAlpha" type="matrix" values="0 0 0 0 0 0 0 0 0 0 0 0 0 0 0 0 0 0 127 0" result="hardAlpha"/>
<feOffset dx="2" dy="2"/>
<feGaussianBlur stdDeviation="3"/>
<feComposite in2="hardAlpha" operator="out"/>
<feColorMatrix type="matrix" values="0 0 0 0 0 0 0 0 0 0 0 0 0 0 0 0 0 0 0.25 0"/>
<feBlend mode="normal" in2="BackgroundImageFix" result="effect1_dropShadow_137_1314"/>
<feBlend mode="normal" in="SourceGraphic" in2="effect1_dropShadow_137_1314" result="shape"/>
</filter>
<filter id="filter2_d_137_1314" x="16" y="24" width="39" height="39" filterUnits="userSpaceOnUse" color-interpolation-filters="sRGB">
<feFlood flood-opacity="0" result="BackgroundImageFix"/>
<feColorMatrix in="SourceAlpha" type="matrix" values="0 0 0 0 0 0 0 0 0 0 0 0 0 0 0 0 0 0 127 0" result="hardAlpha"/>
<feOffset dy="4"/>
<feGaussianBlur stdDeviation="2"/>
<feComposite in2="hardAlpha" operator="out"/>
<feColorMatrix type="matrix" values="0 0 0 0 0 0 0 0 0 0 0 0 0 0 0 0 0 0 0.25 0"/>
<feBlend mode="normal" in2="BackgroundImageFix" result="effect1_dropShadow_137_1314"/>
<feBlend mode="normal" in="SourceGraphic" in2="effect1_dropShadow_137_1314" result="shape"/>
</filter>
</defs>
</svg>
