<svg width="64" height="48" viewBox="0 0 64 48" fill="none" xmlns="http://www.w3.org/2000/svg">
<path d="M18.6375 19.3633C18.6375 19.1523 18.6047 18.9648 18.5391 18.8008C18.4781 18.6367 18.368 18.4867 18.2086 18.3508C18.0492 18.2148 17.8242 18.0836 17.5336 17.957C17.2477 17.8258 16.882 17.6922 16.4367 17.5563C15.9492 17.4063 15.4992 17.2398 15.0867 17.057C14.6789 16.8695 14.3227 16.6539 14.018 16.4102C13.7133 16.1617 13.4766 15.8781 13.3078 15.5594C13.1391 15.2359 13.0547 14.8633 13.0547 14.4414C13.0547 14.0242 13.1414 13.6445 13.3148 13.3023C13.493 12.9602 13.7437 12.6648 14.0672 12.4164C14.3953 12.1633 14.782 11.9688 15.2273 11.8328C15.6727 11.6922 16.1648 11.6219 16.7039 11.6219C17.4633 11.6219 18.1172 11.7625 18.6656 12.0438C19.2187 12.325 19.643 12.7023 19.9383 13.1758C20.2383 13.6492 20.3883 14.1719 20.3883 14.7438H18.6375C18.6375 14.4063 18.5648 14.1086 18.4195 13.8508C18.2789 13.5883 18.0633 13.382 17.7727 13.232C17.4867 13.082 17.1234 13.007 16.6828 13.007C16.2656 13.007 15.9187 13.0703 15.6422 13.1969C15.3656 13.3234 15.1594 13.4945 15.0234 13.7102C14.8875 13.9258 14.8195 14.1695 14.8195 14.4414C14.8195 14.6336 14.8641 14.8094 14.9531 14.9688C15.0422 15.1234 15.1781 15.2688 15.3609 15.4047C15.5437 15.5359 15.7734 15.6602 16.05 15.7773C16.3266 15.8945 16.6523 16.007 17.0273 16.1148C17.5945 16.2836 18.0891 16.4711 18.5109 16.6773C18.9328 16.8789 19.2844 17.1086 19.5656 17.3664C19.8469 17.6242 20.0578 17.9172 20.1984 18.2453C20.3391 18.5688 20.4094 18.9367 20.4094 19.3492C20.4094 19.7805 20.3227 20.1695 20.1492 20.5164C19.9758 20.8586 19.7273 21.1516 19.4039 21.3953C19.0852 21.6344 18.7008 21.8195 18.2508 21.9508C17.8055 22.0773 17.3086 22.1406 16.7602 22.1406C16.268 22.1406 15.7828 22.075 15.3047 21.9438C14.8312 21.8125 14.4 21.6133 14.0109 21.3461C13.6219 21.0742 13.3125 20.7367 13.0828 20.3336C12.8531 19.9258 12.7383 19.45 12.7383 18.9063H14.5031C14.5031 19.2391 14.5594 19.5227 14.6719 19.757C14.7891 19.9914 14.9508 20.1836 15.157 20.3336C15.3633 20.4789 15.6023 20.5867 15.8742 20.657C16.1508 20.7273 16.4461 20.7625 16.7602 20.7625C17.1727 20.7625 17.5172 20.7039 17.7937 20.5867C18.075 20.4695 18.2859 20.3055 18.4266 20.0945C18.5672 19.8836 18.6375 19.6398 18.6375 19.3633ZM23.475 11.2V22H21.7875V11.2H23.475ZM23.1797 17.9148L22.6312 17.9078C22.6359 17.3828 22.7086 16.8977 22.8492 16.4523C22.9945 16.007 23.1961 15.6203 23.4539 15.2922C23.7164 14.9594 24.0305 14.7039 24.3961 14.5258C24.7617 14.343 25.1672 14.2516 25.6125 14.2516C25.9875 14.2516 26.325 14.3031 26.625 14.4063C26.9297 14.5094 27.1922 14.6758 27.4125 14.9055C27.6328 15.1305 27.7992 15.4258 27.9117 15.7914C28.0289 16.1523 28.0875 16.593 28.0875 17.1133V22H26.3859V17.0992C26.3859 16.7336 26.332 16.443 26.2242 16.2273C26.1211 16.0117 25.9687 15.857 25.7672 15.7633C25.5656 15.6648 25.3195 15.6156 25.0289 15.6156C24.7242 15.6156 24.4547 15.6766 24.2203 15.7984C23.9906 15.9203 23.7984 16.0867 23.6437 16.2977C23.4891 16.5086 23.3719 16.7523 23.2922 17.0289C23.2172 17.3055 23.1797 17.6008 23.1797 17.9148ZM29.4797 18.2805V18.1188C29.4797 17.5703 29.5594 17.0617 29.7187 16.593C29.8781 16.1195 30.1078 15.7094 30.4078 15.3625C30.7125 15.0109 31.0828 14.7391 31.5187 14.5469C31.9594 14.35 32.4562 14.2516 33.0094 14.2516C33.5672 14.2516 34.0641 14.35 34.5 14.5469C34.9406 14.7391 35.3133 15.0109 35.618 15.3625C35.9227 15.7094 36.1547 16.1195 36.3141 16.593C36.4734 17.0617 36.5531 17.5703 36.5531 18.1188V18.2805C36.5531 18.8289 36.4734 19.3375 36.3141 19.8063C36.1547 20.275 35.9227 20.6852 35.618 21.0367C35.3133 21.3836 34.943 21.6555 34.507 21.8523C34.0711 22.0445 33.5766 22.1406 33.0234 22.1406C32.4656 22.1406 31.9664 22.0445 31.5258 21.8523C31.0898 21.6555 30.7195 21.3836 30.4148 21.0367C30.1102 20.6852 29.8781 20.275 29.7187 19.8063C29.5594 19.3375 29.4797 18.8289 29.4797 18.2805ZM31.1742 18.1188V18.2805C31.1742 18.6227 31.2094 18.9461 31.2797 19.2508C31.35 19.5555 31.4602 19.8227 31.6102 20.0523C31.7602 20.282 31.9523 20.4625 32.1867 20.5938C32.4211 20.725 32.7 20.7906 33.0234 20.7906C33.3375 20.7906 33.6094 20.725 33.8391 20.5938C34.0734 20.4625 34.2656 20.282 34.4156 20.0523C34.5656 19.8227 34.6758 19.5555 34.7461 19.2508C34.8211 18.9461 34.8586 18.6227 34.8586 18.2805V18.1188C34.8586 17.7813 34.8211 17.4625 34.7461 17.1625C34.6758 16.8578 34.5633 16.5883 34.4086 16.3539C34.2586 16.1195 34.0664 15.9367 33.832 15.8055C33.6023 15.6695 33.3281 15.6016 33.0094 15.6016C32.6906 15.6016 32.4141 15.6695 32.1797 15.8055C31.95 15.9367 31.7602 16.1195 31.6102 16.3539C31.4602 16.5883 31.35 16.8578 31.2797 17.1625C31.2094 17.4625 31.1742 17.7813 31.1742 18.1188ZM40.0406 20.3125L41.7984 14.3922H42.8812L42.5859 16.1641L40.8141 22H39.8437L40.0406 20.3125ZM39.007 14.3922L40.3781 20.3406L40.4906 22H39.4078L37.3477 14.3922H39.007ZM44.5266 20.2703L45.8555 14.3922H47.5078L45.4547 22H44.3719L44.5266 20.2703ZM43.0641 14.3922L44.8008 20.2422L45.0187 22H44.0484L42.2555 16.157L41.9602 14.3922H43.0641Z" fill="#0672CB" style="fill:#0672CB;fill:color(display-p3 0.0235 0.4471 0.7961);fill-opacity:1;"/>
<g filter="url(#filter0_d_137_2990)">
<rect x="4" y="4" width="52" height="36" rx="2" fill="#E5F8FF" style="fill:#E5F8FF;fill:color(display-p3 0.8980 0.9725 1.0000);fill-opacity:1;"/>
</g>
<path d="M18.6375 24.3633C18.6375 24.1523 18.6047 23.9648 18.5391 23.8008C18.4781 23.6367 18.368 23.4867 18.2086 23.3508C18.0492 23.2148 17.8242 23.0836 17.5336 22.957C17.2477 22.8258 16.882 22.6922 16.4367 22.5563C15.9492 22.4063 15.4992 22.2398 15.0867 22.057C14.6789 21.8695 14.3227 21.6539 14.018 21.4102C13.7133 21.1617 13.4766 20.8781 13.3078 20.5594C13.1391 20.2359 13.0547 19.8633 13.0547 19.4414C13.0547 19.0242 13.1414 18.6445 13.3148 18.3023C13.493 17.9602 13.7437 17.6648 14.0672 17.4164C14.3953 17.1633 14.782 16.9688 15.2273 16.8328C15.6727 16.6922 16.1648 16.6219 16.7039 16.6219C17.4633 16.6219 18.1172 16.7625 18.6656 17.0438C19.2187 17.325 19.643 17.7023 19.9383 18.1758C20.2383 18.6492 20.3883 19.1719 20.3883 19.7438H18.6375C18.6375 19.4063 18.5648 19.1086 18.4195 18.8508C18.2789 18.5883 18.0633 18.382 17.7727 18.232C17.4867 18.082 17.1234 18.007 16.6828 18.007C16.2656 18.007 15.9187 18.0703 15.6422 18.1969C15.3656 18.3234 15.1594 18.4945 15.0234 18.7102C14.8875 18.9258 14.8195 19.1695 14.8195 19.4414C14.8195 19.6336 14.8641 19.8094 14.9531 19.9688C15.0422 20.1234 15.1781 20.2688 15.3609 20.4047C15.5437 20.5359 15.7734 20.6602 16.05 20.7773C16.3266 20.8945 16.6523 21.007 17.0273 21.1148C17.5945 21.2836 18.0891 21.4711 18.5109 21.6773C18.9328 21.8789 19.2844 22.1086 19.5656 22.3664C19.8469 22.6242 20.0578 22.9172 20.1984 23.2453C20.3391 23.5688 20.4094 23.9367 20.4094 24.3492C20.4094 24.7805 20.3227 25.1695 20.1492 25.5164C19.9758 25.8586 19.7273 26.1516 19.4039 26.3953C19.0852 26.6344 18.7008 26.8195 18.2508 26.9508C17.8055 27.0773 17.3086 27.1406 16.7602 27.1406C16.268 27.1406 15.7828 27.075 15.3047 26.9438C14.8312 26.8125 14.4 26.6133 14.0109 26.3461C13.6219 26.0742 13.3125 25.7367 13.0828 25.3336C12.8531 24.9258 12.7383 24.45 12.7383 23.9063H14.5031C14.5031 24.2391 14.5594 24.5227 14.6719 24.757C14.7891 24.9914 14.9508 25.1836 15.157 25.3336C15.3633 25.4789 15.6023 25.5867 15.8742 25.657C16.1508 25.7273 16.4461 25.7625 16.7602 25.7625C17.1727 25.7625 17.5172 25.7039 17.7937 25.5867C18.075 25.4695 18.2859 25.3055 18.4266 25.0945C18.5672 24.8836 18.6375 24.6398 18.6375 24.3633ZM23.475 16.2V27H21.7875V16.2H23.475ZM23.1797 22.9148L22.6312 22.9078C22.6359 22.3828 22.7086 21.8977 22.8492 21.4523C22.9945 21.007 23.1961 20.6203 23.4539 20.2922C23.7164 19.9594 24.0305 19.7039 24.3961 19.5258C24.7617 19.343 25.1672 19.2516 25.6125 19.2516C25.9875 19.2516 26.325 19.3031 26.625 19.4063C26.9297 19.5094 27.1922 19.6758 27.4125 19.9055C27.6328 20.1305 27.7992 20.4258 27.9117 20.7914C28.0289 21.1523 28.0875 21.593 28.0875 22.1133V27H26.3859V22.0992C26.3859 21.7336 26.332 21.443 26.2242 21.2273C26.1211 21.0117 25.9687 20.857 25.7672 20.7633C25.5656 20.6648 25.3195 20.6156 25.0289 20.6156C24.7242 20.6156 24.4547 20.6766 24.2203 20.7984C23.9906 20.9203 23.7984 21.0867 23.6437 21.2977C23.4891 21.5086 23.3719 21.7523 23.2922 22.0289C23.2172 22.3055 23.1797 22.6008 23.1797 22.9148ZM29.4797 23.2805V23.1188C29.4797 22.5703 29.5594 22.0617 29.7187 21.593C29.8781 21.1195 30.1078 20.7094 30.4078 20.3625C30.7125 20.0109 31.0828 19.7391 31.5187 19.5469C31.9594 19.35 32.4562 19.2516 33.0094 19.2516C33.5672 19.2516 34.0641 19.35 34.5 19.5469C34.9406 19.7391 35.3133 20.0109 35.618 20.3625C35.9227 20.7094 36.1547 21.1195 36.3141 21.593C36.4734 22.0617 36.5531 22.5703 36.5531 23.1188V23.2805C36.5531 23.8289 36.4734 24.3375 36.3141 24.8063C36.1547 25.275 35.9227 25.6852 35.618 26.0367C35.3133 26.3836 34.943 26.6555 34.507 26.8523C34.0711 27.0445 33.5766 27.1406 33.0234 27.1406C32.4656 27.1406 31.9664 27.0445 31.5258 26.8523C31.0898 26.6555 30.7195 26.3836 30.4148 26.0367C30.1102 25.6852 29.8781 25.275 29.7187 24.8063C29.5594 24.3375 29.4797 23.8289 29.4797 23.2805ZM31.1742 23.1188V23.2805C31.1742 23.6227 31.2094 23.9461 31.2797 24.2508C31.35 24.5555 31.4602 24.8227 31.6102 25.0523C31.7602 25.282 31.9523 25.4625 32.1867 25.5938C32.4211 25.725 32.7 25.7906 33.0234 25.7906C33.3375 25.7906 33.6094 25.725 33.8391 25.5938C34.0734 25.4625 34.2656 25.282 34.4156 25.0523C34.5656 24.8227 34.6758 24.5555 34.7461 24.2508C34.8211 23.9461 34.8586 23.6227 34.8586 23.2805V23.1188C34.8586 22.7813 34.8211 22.4625 34.7461 22.1625C34.6758 21.8578 34.5633 21.5883 34.4086 21.3539C34.2586 21.1195 34.0664 20.9367 33.832 20.8055C33.6023 20.6695 33.3281 20.6016 33.0094 20.6016C32.6906 20.6016 32.4141 20.6695 32.1797 20.8055C31.95 20.9367 31.7602 21.1195 31.6102 21.3539C31.4602 21.5883 31.35 21.8578 31.2797 22.1625C31.2094 22.4625 31.1742 22.7813 31.1742 23.1188ZM40.0406 25.3125L41.7984 19.3922H42.8812L42.5859 21.1641L40.8141 27H39.8437L40.0406 25.3125ZM39.007 19.3922L40.3781 25.3406L40.4906 27H39.4078L37.3477 19.3922H39.007ZM44.5266 25.2703L45.8555 19.3922H47.5078L45.4547 27H44.3719L44.5266 25.2703ZM43.0641 19.3922L44.8008 25.2422L45.0187 27H44.0484L42.2555 21.157L41.9602 19.3922H43.0641Z" fill="#0672CB" style="fill:#0672CB;fill:color(display-p3 0.0235 0.4471 0.7961);fill-opacity:1;"/>
<defs>
<filter id="filter0_d_137_2990" x="0" y="0" width="64" height="48" filterUnits="userSpaceOnUse" color-interpolation-filters="sRGB">
<feFlood flood-opacity="0" result="BackgroundImageFix"/>
<feColorMatrix in="SourceAlpha" type="matrix" values="0 0 0 0 0 0 0 0 0 0 0 0 0 0 0 0 0 0 127 0" result="hardAlpha"/>
<feOffset dx="2" dy="2"/>
<feGaussianBlur stdDeviation="3"/>
<feComposite in2="hardAlpha" operator="out"/>
<feColorMatrix type="matrix" values="0 0 0 0 0 0 0 0 0 0 0 0 0 0 0 0 0 0 0.25 0"/>
<feBlend mode="normal" in2="BackgroundImageFix" result="effect1_dropShadow_137_2990"/>
<feBlend mode="normal" in="SourceGraphic" in2="effect1_dropShadow_137_2990" result="shape"/>
</filter>
</defs>
</svg>
